<svg width="50" height="50" viewBox="0 0 50 50" fill="none" xmlns="http://www.w3.org/2000/svg">
<rect x="0.5" y="0.5" width="49" height="49" rx="24.5" stroke="#F63D68"/>
<path d="M18.5844 25.6055C18.3109 25.6055 18.0831 25.5143 17.9008 25.332C17.7185 25.1497 17.6273 24.9219 17.6273 24.6484C17.6273 24.3841 17.7185 24.1608 17.9008 23.9785C18.0831 23.7962 18.3109 23.7051 18.5844 23.7051H24.7777V15.4336C24.7777 15.1693 24.8689 14.946 25.0512 14.7637C25.2335 14.5814 25.4568 14.4902 25.7211 14.4902C25.9945 14.4902 26.2224 14.5814 26.4047 14.7637C26.587 14.946 26.6781 15.1693 26.6781 15.4336V24.6484C26.6781 24.9219 26.587 25.1497 26.4047 25.332C26.2224 25.5143 25.9945 25.6055 25.7211 25.6055H18.5844ZM25.7348 38.0742C23.8116 38.0742 22.0069 37.7096 20.3207 36.9805C18.6345 36.2604 17.1534 35.2624 15.8773 33.9863C14.6013 32.7103 13.5987 31.2292 12.8695 29.543C12.1495 27.8568 11.7895 26.0521 11.7895 24.1289C11.7895 22.2057 12.1495 20.401 12.8695 18.7148C13.5987 17.0286 14.6013 15.5475 15.8773 14.2715C17.1534 12.9863 18.6345 11.9837 20.3207 11.2637C22.0069 10.5436 23.8116 10.1836 25.7348 10.1836C27.6579 10.1836 29.4626 10.5436 31.1488 11.2637C32.835 11.9837 34.3161 12.9863 35.5922 14.2715C36.8682 15.5475 37.8663 17.0286 38.5863 18.7148C39.3155 20.401 39.6801 22.2057 39.6801 24.1289C39.6801 26.0521 39.3155 27.8568 38.5863 29.543C37.8663 31.2292 36.8682 32.7103 35.5922 33.9863C34.3161 35.2624 32.835 36.2604 31.1488 36.9805C29.4626 37.7096 27.6579 38.0742 25.7348 38.0742ZM25.7348 35.75C27.3389 35.75 28.8428 35.4492 30.2465 34.8477C31.6501 34.2461 32.8852 33.4121 33.9516 32.3457C35.018 31.2793 35.852 30.0443 36.4535 28.6406C37.0551 27.237 37.3559 25.7331 37.3559 24.1289C37.3559 22.5247 37.0551 21.0208 36.4535 19.6172C35.852 18.2044 35.018 16.9694 33.9516 15.9121C32.8852 14.8457 31.6501 14.0117 30.2465 13.4102C28.8428 12.8086 27.3389 12.5078 25.7348 12.5078C24.1306 12.5078 22.6267 12.8086 21.223 13.4102C19.8194 14.0117 18.5844 14.8457 17.518 15.9121C16.4516 16.9694 15.6176 18.2044 15.016 19.6172C14.4145 21.0208 14.1137 22.5247 14.1137 24.1289C14.1137 25.7331 14.4145 27.237 15.016 28.6406C15.6176 30.0443 16.4516 31.2793 17.518 32.3457C18.5844 33.4121 19.8194 34.2461 21.223 34.8477C22.6267 35.4492 24.1306 35.75 25.7348 35.75Z" fill="#697989"/>
</svg>
