<svg width="60" height="60" viewBox="0 0 60 60" fill="none" xmlns="http://www.w3.org/2000/svg">
<path d="M38.5622 18.75C38.2328 19.0837 37.0247 20.42 36.256 21.0881C36.1466 21.4225 37.5741 22.7581 37.9035 23.0925C38.2328 23.4269 42.1847 21.0881 41.856 20.7544C41.5922 20.4869 39.5497 19.3069 38.5622 18.75Z" stroke="#E31B54" stroke-width="2" stroke-linecap="round" stroke-linejoin="round"/>
<path d="M22.1076 25.4511C22.1002 25.3963 22.0939 25.3413 22.0889 25.2861C20.9544 26.3809 20.0418 27.6843 19.4014 29.1249C19.6867 29.183 19.9577 29.2974 20.1985 29.4612C20.4393 29.6251 20.6451 29.8351 20.8039 30.0793C20.9628 30.3234 21.0715 30.5966 21.1238 30.8831C21.1761 31.1696 21.1709 31.4637 21.1085 31.7482C21.0461 32.0327 20.9277 32.3019 20.7603 32.5402C20.5929 32.7785 20.3798 32.9812 20.1334 33.1364C19.8869 33.2916 19.6121 33.3963 19.3248 33.4443C19.0376 33.4923 18.7436 33.4828 18.4601 33.4161C18.4476 35.6324 19.1789 37.763 20.6976 39.4168C22.8882 41.8011 26.2039 42.6361 29.4664 41.9568C31.4751 41.5393 33.4632 40.548 35.1576 38.9911C35.9727 38.2446 36.6852 37.3932 37.2764 36.4593C35.8857 36.878 34.3545 36.2018 33.7757 34.8355C33.6334 34.4993 33.4132 34.2018 33.1331 33.9676C32.853 33.7334 32.5212 33.5692 32.1651 33.4886L31.1139 33.2505C30.5194 33.1156 29.9671 32.8372 29.5051 32.4395C29.0431 32.0418 28.6856 31.537 28.4639 30.9693L28.407 30.8249C28.1648 30.205 27.7503 29.6673 27.2124 29.2754C26.6745 28.8834 26.0357 28.6536 25.3714 28.613C24.565 28.5638 23.8008 28.2361 23.2092 27.686C22.6176 27.1358 22.2353 26.3974 22.1276 25.5968L22.1076 25.4511Z" fill="#E31B54" stroke="#E31B54" stroke-width="2" stroke-linecap="round" stroke-linejoin="round"/>
<path d="M23.2212 22.2862L23.0644 22.4549C22.6928 22.8522 22.4143 23.3272 22.2489 23.8454C22.0835 24.3636 22.0354 24.9121 22.1081 25.4512L22.1269 25.5968C22.2345 26.3976 22.6169 27.1361 23.2086 27.6862C23.8004 28.2363 24.5648 28.5639 25.3712 28.6131C26.0356 28.6537 26.6745 28.8836 27.2124 29.2757C27.7503 29.6677 28.1648 30.2055 28.4069 30.8256L28.4631 30.9693C28.6849 31.5372 29.0425 32.042 29.5046 32.4397C29.9667 32.8374 30.5192 33.1158 31.1137 33.2506L32.1656 33.4887C32.5216 33.5693 32.8533 33.7335 33.1332 33.9677C33.4132 34.2019 33.6334 34.4994 33.7756 34.8356C34.3981 36.3043 36.1225 36.9762 37.5881 36.3456C39.0681 35.7087 40.1406 34.3462 40.39 32.7543L40.5194 31.9231C40.5892 31.4754 40.6102 31.0215 40.5819 30.5693L40.5144 29.5131C40.3793 27.3855 39.6173 25.3456 38.3244 23.6506L38.1669 23.4437C37.1467 22.1062 35.8015 21.0517 34.2592 20.3803C32.7168 19.7088 31.0284 19.4428 29.3544 19.6074L28.4756 19.6937C26.4676 19.8915 24.6 20.8129 23.2212 22.2862Z" stroke="#E31B54" stroke-width="2" stroke-linecap="round" stroke-linejoin="round"/>
<path fill-rule="evenodd" clip-rule="evenodd" d="M30 2.46575C14.7933 2.46575 2.46575 14.7933 2.46575 30C2.46575 45.2067 14.7933 57.5342 30 57.5342C45.2067 57.5342 57.5342 45.2067 57.5342 30C57.5342 14.7933 45.2067 2.46575 30 2.46575ZM0 30C0 13.4315 13.4315 0 30 0C46.5685 0 60 13.4315 60 30C60 46.5685 46.5685 60 30 60C13.4315 60 0 46.5685 0 30Z" fill="#E31B54"/>
<path fill-rule="evenodd" clip-rule="evenodd" d="M50.6492 9.35085C51.1307 9.83232 51.1307 10.6129 50.6492 11.0944L11.0944 50.6492C10.6129 51.1307 9.83232 51.1307 9.35085 50.6492C8.86938 50.1677 8.86938 49.3871 9.35085 48.9056L48.9056 9.35085C49.3871 8.86938 50.1677 8.86938 50.6492 9.35085Z" fill="#E31B54"/>
</svg>
