<svg width="50" height="50" viewBox="0 0 50 50" fill="none" xmlns="http://www.w3.org/2000/svg">
<rect x="0.5" y="0.5" width="49" height="49" rx="24.5" stroke="#F63D68"/>
<path d="M19.7969 38.9766C19.2227 38.9766 18.7715 38.8216 18.4434 38.5117C18.1152 38.2018 17.9557 37.7689 17.9648 37.2129L18.2246 21.8594C18.2246 21.6224 18.1745 21.4173 18.0742 21.2441C17.974 21.0618 17.8145 20.9251 17.5957 20.834C16.9941 20.5697 16.502 20.2826 16.1191 19.9727C15.7454 19.6536 15.4766 19.248 15.3125 18.7559C15.1484 18.2637 15.0846 17.6165 15.1211 16.8145L15.4902 8.41992C15.5085 8.11914 15.5996 7.88672 15.7637 7.72266C15.9277 7.55859 16.151 7.47656 16.4336 7.47656C16.707 7.47656 16.9167 7.56315 17.0625 7.73633C17.2174 7.90039 17.2949 8.13737 17.2949 8.44727L17.1992 16.6094C17.1992 17.1289 17.4544 17.3887 17.9648 17.3887C18.1927 17.3887 18.3796 17.3249 18.5254 17.1973C18.6803 17.0605 18.7578 16.8783 18.7578 16.6504L18.8945 8.20117C18.8945 7.90951 18.9766 7.68164 19.1406 7.51758C19.3047 7.35352 19.5234 7.27148 19.7969 7.27148C20.0794 7.27148 20.2982 7.35352 20.4531 7.51758C20.6172 7.68164 20.7038 7.90951 20.7129 8.20117L20.8496 16.6504C20.8496 16.8783 20.9225 17.0605 21.0684 17.1973C21.2142 17.3249 21.4056 17.3887 21.6426 17.3887C21.8613 17.3887 22.0391 17.3203 22.1758 17.1836C22.3216 17.0469 22.3945 16.8555 22.3945 16.6094L22.2988 8.44727C22.2988 8.13737 22.3763 7.90039 22.5312 7.73633C22.6862 7.56315 22.8958 7.47656 23.1602 7.47656C23.7617 7.47656 24.0762 7.79102 24.1035 8.41992L24.4863 16.8145C24.5137 17.6165 24.4453 18.2637 24.2812 18.7559C24.1172 19.248 23.8438 19.6536 23.4609 19.9727C23.0872 20.2826 22.5996 20.5697 21.998 20.834C21.7884 20.9251 21.6289 21.0618 21.5195 21.2441C21.4193 21.4173 21.3691 21.6224 21.3691 21.8594L21.6426 37.2129C21.6426 37.7689 21.4785 38.2018 21.1504 38.5117C20.8223 38.8216 20.3711 38.9766 19.7969 38.9766ZM30.502 27.0547C30.5111 26.8086 30.4564 26.5898 30.3379 26.3984C30.2285 26.1979 30.0553 26.0111 29.8184 25.8379L28.998 25.291C28.6608 25.0632 28.4056 24.776 28.2324 24.4297C28.0592 24.0833 27.9727 23.6732 27.9727 23.1992V22.5293C27.9727 21.1621 28.0592 19.7949 28.2324 18.4277C28.4056 17.0605 28.6517 15.7435 28.9707 14.4766C29.2988 13.2005 29.6862 12.0293 30.1328 10.9629C30.5794 9.88737 31.0762 8.96224 31.623 8.1875C31.8509 7.86849 32.0605 7.63607 32.252 7.49023C32.4434 7.3444 32.6667 7.27148 32.9219 7.27148C33.1771 7.27148 33.4049 7.35807 33.6055 7.53125C33.806 7.69531 33.9062 7.95052 33.9062 8.29688V37.2949C33.9062 37.8418 33.7376 38.2565 33.4004 38.5391C33.0632 38.8307 32.6074 38.9766 32.0332 38.9766C31.4681 38.9766 31.0169 38.8171 30.6797 38.498C30.3424 38.1882 30.1829 37.737 30.2012 37.1445L30.502 27.0547Z" fill="#697989"/>
</svg>
