<svg width="60" height="60" viewBox="0 0 60 60" fill="none" xmlns="http://www.w3.org/2000/svg">
<path d="M21.182 41.6609C19.7607 39.6746 19.7607 37.3801 19.7607 35.1027C22.6203 36.815 25.4628 38.5273 26.9012 40.5308L27.4662 41.4897V37.5856C24.8977 36.0445 22.4662 34.4691 21.182 32.6712C19.7607 30.6849 19.7607 28.3903 19.7607 26.1129C22.6203 27.8253 25.4628 29.5376 26.9012 31.541L27.4662 32.5342V28.5958C24.8977 27.0547 22.4662 25.4794 21.182 23.6814C19.7607 21.6951 19.7607 19.4006 19.7607 17.1232C22.6203 18.8356 25.4628 20.5479 26.9012 22.5513C27.0724 22.791 27.2265 23.0479 27.3635 23.3219C27.0724 22.2602 26.884 21.2671 26.8669 20.2397C26.8498 17.654 27.9799 14.9999 29.1101 12.3458C30.2916 14.8801 31.4731 17.4314 31.4902 20.0171C31.5073 21.0958 31.319 22.1917 31.0107 23.2705C31.1477 23.0308 31.2847 22.791 31.4559 22.5513C32.8943 20.5479 35.7368 18.8356 38.5964 17.1232C38.5964 19.4006 38.5964 21.6951 37.1751 23.6814C35.8909 25.4794 33.4594 27.0547 30.8909 28.5958V32.5342L31.4559 31.541C32.8943 29.5376 35.7368 27.8253 38.5964 26.1129C38.5964 28.3903 38.5964 30.6849 37.1751 32.6712C35.8909 34.4691 33.4594 36.0445 30.8909 37.5856V41.4897L31.4559 40.5308C32.8943 38.5273 35.7368 36.815 38.5964 35.1027C38.5964 37.3801 38.5964 39.6746 37.1751 41.6609C35.8909 43.4588 33.4594 45.0342 30.8909 46.5753V49.6575H27.4662V46.5753C24.8977 45.0342 22.4662 43.4588 21.182 41.6609Z" fill="#101828"/>
<path fill-rule="evenodd" clip-rule="evenodd" d="M30 2.46575C14.7933 2.46575 2.46575 14.7933 2.46575 30C2.46575 45.2067 14.7933 57.5342 30 57.5342C45.2067 57.5342 57.5342 45.2067 57.5342 30C57.5342 14.7933 45.2067 2.46575 30 2.46575ZM0 30C0 13.4315 13.4315 0 30 0C46.5685 0 60 13.4315 60 30C60 46.5685 46.5685 60 30 60C13.4315 60 0 46.5685 0 30Z" fill="#101828"/>
<path fill-rule="evenodd" clip-rule="evenodd" d="M50.6492 9.35085C51.1307 9.83232 51.1307 10.6129 50.6492 11.0944L11.0944 50.6492C10.6129 51.1307 9.83232 51.1307 9.35085 50.6492C8.86938 50.1677 8.86938 49.3871 9.35085 48.9056L48.9056 9.35085C49.3871 8.86938 50.1677 8.86938 50.6492 9.35085Z" fill="#101828"/>
</svg>
