<svg width="50" height="50" viewBox="0 0 50 50" fill="none" xmlns="http://www.w3.org/2000/svg">
<rect x="0.5" y="0.5" width="49" height="49" rx="24.5" stroke="#F63D68"/>
<path d="M25.2305 35.6338C24.1992 35.6338 23.3327 35.4512 22.6309 35.0859C21.9362 34.7279 21.4098 34.2015 21.0518 33.5068C20.6937 32.805 20.5146 31.9456 20.5146 30.9287V25.1172C20.5146 24.1003 20.6937 23.2409 21.0518 22.5391C21.4098 21.8372 21.9362 21.3073 22.6309 20.9492C23.3327 20.584 24.1992 20.4014 25.2305 20.4014H35.21C36.2412 20.4014 37.1042 20.584 37.7988 20.9492C38.5007 21.3073 39.0306 21.8372 39.3887 22.5391C39.7467 23.2409 39.9258 24.1003 39.9258 25.1172V30.9287C39.9258 31.9456 39.7467 32.805 39.3887 33.5068C39.0306 34.2015 38.5007 34.7279 37.7988 35.0859C37.1042 35.4512 36.2412 35.6338 35.21 35.6338H34.9844V38.2119C34.9844 38.6201 34.8841 38.946 34.6836 39.1895C34.4831 39.4329 34.1966 39.5547 33.8242 39.5547C33.5664 39.5547 33.3265 39.4831 33.1045 39.3398C32.8896 39.1966 32.6211 38.9854 32.2988 38.7061L28.7109 35.6338H25.2305ZM9.07422 28.1357V19.8965C9.07422 18.8509 9.26042 17.9629 9.63281 17.2324C10.0124 16.4948 10.5674 15.9362 11.2979 15.5566C12.0283 15.1699 12.9271 14.9766 13.9941 14.9766H27.8301C29.2122 14.9766 30.3115 15.3024 31.1279 15.9541C31.9515 16.6058 32.4564 17.5296 32.6426 18.7256V18.9404H25.2305C23.9271 18.9404 22.8135 19.1875 21.8896 19.6816C20.9658 20.1758 20.2604 20.8848 19.7734 21.8086C19.2936 22.7324 19.0537 23.8353 19.0537 25.1172V30.9287C19.0537 32.1533 19.2793 33.2204 19.7305 34.1299L17.2275 36.3535C16.9053 36.64 16.6331 36.8512 16.4111 36.9873C16.1891 37.1305 15.9456 37.2021 15.6807 37.2021C15.3083 37.2021 15.0182 37.0804 14.8105 36.8369C14.61 36.5934 14.5098 36.264 14.5098 35.8486V33.0449H13.9941C12.9271 33.0449 12.0283 32.8551 11.2979 32.4756C10.5674 32.096 10.0124 31.541 9.63281 30.8105C9.26042 30.0729 9.07422 29.1813 9.07422 28.1357Z" fill="#697989"/>
</svg>
