<svg width="50" height="50" viewBox="0 0 50 50" fill="none" xmlns="http://www.w3.org/2000/svg">
<rect x="0.5" y="0.5" width="49" height="49" rx="24.5" stroke="#F63D68"/>
<path d="M24.5 38.0742C22.5768 38.0742 20.7721 37.7096 19.0859 36.9805C17.3997 36.2604 15.9186 35.2624 14.6426 33.9863C13.3665 32.7103 12.3639 31.2292 11.6348 29.543C10.9147 27.8568 10.5547 26.0521 10.5547 24.1289C10.5547 22.2057 10.9147 20.401 11.6348 18.7148C12.3639 17.0286 13.3665 15.5475 14.6426 14.2715C15.9186 12.9863 17.3997 11.9837 19.0859 11.2637C20.7721 10.5436 22.5768 10.1836 24.5 10.1836C26.4232 10.1836 28.2279 10.5436 29.9141 11.2637C31.6003 11.9837 33.0814 12.9863 34.3574 14.2715C35.6335 15.5475 36.6315 17.0286 37.3516 18.7148C38.0807 20.401 38.4453 22.2057 38.4453 24.1289C38.4453 26.0521 38.0807 27.8568 37.3516 29.543C36.6315 31.2292 35.6335 32.7103 34.3574 33.9863C33.0814 35.2624 31.6003 36.2604 29.9141 36.9805C28.2279 37.7096 26.4232 38.0742 24.5 38.0742ZM24.5 35.75C26.1042 35.75 27.6081 35.4492 29.0117 34.8477C30.4154 34.2461 31.6504 33.4121 32.7168 32.3457C33.7832 31.2793 34.6172 30.0443 35.2188 28.6406C35.8203 27.237 36.1211 25.7331 36.1211 24.1289C36.1211 22.5247 35.8203 21.0208 35.2188 19.6172C34.6172 18.2044 33.7832 16.9694 32.7168 15.9121C31.6504 14.8457 30.4154 14.0117 29.0117 13.4102C27.6081 12.8086 26.1042 12.5078 24.5 12.5078C22.8958 12.5078 21.3919 12.8086 19.9883 13.4102C18.5846 14.0117 17.3496 14.8457 16.2832 15.9121C15.2168 16.9694 14.3828 18.2044 13.7812 19.6172C13.1797 21.0208 12.8789 22.5247 12.8789 24.1289C12.8789 25.7331 13.1797 27.237 13.7812 28.6406C14.3828 30.0443 15.2168 31.2793 16.2832 32.3457C17.3496 33.4121 18.5846 34.2461 19.9883 34.8477C21.3919 35.4492 22.8958 35.75 24.5 35.75ZM21.2188 18.0996C21.9479 18.0996 22.5905 18.291 23.1465 18.6738C23.7116 19.0566 24.1628 19.5579 24.5 20.1777C24.8372 19.5579 25.2884 19.0566 25.8535 18.6738C26.4186 18.291 27.0612 18.0996 27.7812 18.0996C28.556 18.0996 29.2396 18.2819 29.832 18.6465C30.4336 19.002 30.9076 19.4941 31.2539 20.123C31.6003 20.7428 31.7734 21.4583 31.7734 22.2695C31.7734 22.9896 31.6367 23.6914 31.3633 24.375C31.0898 25.0586 30.7207 25.7194 30.2559 26.3574C29.791 26.9863 29.2715 27.5833 28.6973 28.1484C28.123 28.7044 27.5306 29.2194 26.9199 29.6934C26.3092 30.1673 25.7259 30.5866 25.1699 30.9512C25.0697 31.0241 24.9557 31.097 24.8281 31.1699C24.7096 31.2337 24.6094 31.2656 24.5273 31.2656C24.4362 31.2656 24.3223 31.2292 24.1855 31.1562C24.0579 31.0833 23.9349 31.015 23.8164 30.9512C23.2604 30.5957 22.6771 30.1855 22.0664 29.7207C21.4557 29.2467 20.8633 28.7272 20.2891 28.1621C19.7148 27.597 19.1953 27 18.7305 26.3711C18.2747 25.7331 17.9102 25.0723 17.6367 24.3887C17.3633 23.696 17.2266 22.9896 17.2266 22.2695C17.2266 21.4583 17.3952 20.7428 17.7324 20.123C18.0788 19.4941 18.5527 19.002 19.1543 18.6465C19.7559 18.2819 20.444 18.0996 21.2188 18.0996Z" fill="#697989"/>
</svg>
