<svg width="83" height="72" viewBox="0 0 83 72" fill="none" xmlns="http://www.w3.org/2000/svg">
<path d="M59.0078 0.000688261C55.9257 -0.00718937 52.8726 0.596016 50.025 1.77543C47.1775 2.95484 44.592 4.68705 42.4181 6.8719L41.2344 8.05561L40.0507 6.8719C36.7696 3.59069 32.5892 1.35614 28.0381 0.450843C23.4871 -0.454459 18.7697 0.0101478 14.4827 1.78591C10.1957 3.56167 6.53158 6.56882 3.95367 10.4271C1.37575 14.2853 -0.000133919 18.8214 9.77658e-09 23.4616C9.77658e-09 49.1762 37.6121 69.7223 39.2118 70.5861C39.8334 70.9209 40.5284 71.0961 41.2344 71.0961C41.9404 71.0961 42.6354 70.9209 43.257 70.5861C44.8566 69.7223 82.4688 49.1762 82.4688 23.4616C82.4612 17.2417 79.987 11.2787 75.5889 6.88055C71.1907 2.4824 65.2277 0.00821388 59.0078 0.000688261ZM57.0563 50.6052C52.1056 54.8063 46.8133 58.5873 41.2344 61.9091C35.6555 58.5873 30.3632 54.8063 25.4125 50.6052C17.7095 43.9971 8.53125 33.9195 8.53125 23.4616C8.53104 20.5087 9.40653 17.6219 11.047 15.1666C12.6875 12.7112 15.0193 10.7975 17.7474 9.66738C20.4756 8.53729 23.4777 8.24164 26.3739 8.81779C29.2701 9.39394 31.9304 10.816 34.0184 12.9042L35.1914 14.0879L32.5183 16.761C32.1206 17.1573 31.8051 17.6282 31.5898 18.1467C31.3745 18.6652 31.2637 19.2211 31.2637 19.7825C31.2637 20.3439 31.3745 20.8998 31.5898 21.4183C31.8051 21.9368 32.1206 22.4077 32.5183 22.804L40.232 30.5177L35.362 35.384C34.9652 35.7808 34.6505 36.2519 34.4358 36.7703C34.221 37.2887 34.1105 37.8444 34.1105 38.4055C34.1105 38.9667 34.221 39.5223 34.4358 40.0407C34.6505 40.5592 34.9652 41.0302 35.362 41.427C35.7588 41.8238 36.2299 42.1385 36.7483 42.3533C37.2667 42.568 37.8224 42.6786 38.3835 42.6786C38.9447 42.6786 39.5003 42.568 40.0187 42.3533C40.5372 42.1385 41.0082 41.8238 41.405 41.427L49.2893 33.5392C49.687 33.1429 50.0025 32.672 50.2178 32.1535C50.4331 31.635 50.5439 31.0791 50.5439 30.5177C50.5439 29.9563 50.4331 29.4004 50.2178 28.8819C50.0025 28.3634 49.687 27.8925 49.2893 27.4962L41.5898 19.7754L48.4504 12.9042C50.5383 10.816 53.1987 9.39394 56.0949 8.81779C58.9911 8.24164 61.9931 8.53729 64.7213 9.66738C67.4495 10.7975 69.7813 12.7112 71.4217 15.1666C73.0622 17.6219 73.9377 20.5087 73.9375 23.4616C73.9375 33.9195 64.7593 43.9971 57.0563 50.6052Z" fill="#F70000"/>
</svg>
