<svg width="82" height="80" viewBox="0 0 82 80" fill="none" xmlns="http://www.w3.org/2000/svg">
<path d="M7.37207 79.3535C7.37207 79.3535 0.646484 79.3535 0.646484 72.771C0.646484 66.1886 7.37207 46.4411 41 46.4411C74.6279 46.4411 81.3535 66.1886 81.3535 72.771C81.3535 79.3535 74.6279 79.3535 74.6279 79.3535H7.37207ZM41 39.8586C46.3512 39.8586 51.4832 37.7781 55.2671 34.0747C59.051 30.3713 61.1768 25.3485 61.1768 20.1111C61.1768 14.8738 59.051 9.85092 55.2671 6.14755C51.4832 2.44418 46.3512 0.363647 41 0.363647C35.6488 0.363647 30.5168 2.44418 26.7329 6.14755C22.949 9.85092 20.8232 14.8738 20.8232 20.1111C20.8232 25.3485 22.949 30.3713 26.7329 34.0747C30.5168 37.7781 35.6488 39.8586 41 39.8586Z" fill="#E31B54"/>
</svg>
