<svg width="19" height="20" viewBox="0 0 19 20" fill="none" xmlns="http://www.w3.org/2000/svg">
<path d="M9.16667 0C14.2294 0 18.3333 4.10392 18.3333 9.16667C18.3333 14.2294 14.2294 18.3333 9.16667 18.3333C4.10392 18.3333 0 14.2294 0 9.16667C0 4.10392 4.10392 0 9.16667 0ZM9.16667 3.66667C8.92355 3.66667 8.69039 3.76324 8.51849 3.93515C8.34658 4.10706 8.25 4.34022 8.25 4.58333V9.16667C8.25005 9.40976 8.34666 9.64288 8.51858 9.81475L11.2686 12.5648C11.4415 12.7317 11.673 12.8241 11.9134 12.822C12.1537 12.8199 12.3836 12.7235 12.5536 12.5536C12.7235 12.3836 12.8199 12.1537 12.822 11.9134C12.8241 11.673 12.7317 11.4415 12.5648 11.2686L10.0833 8.78717V4.58333C10.0833 4.34022 9.98676 4.10706 9.81485 3.93515C9.64294 3.76324 9.40978 3.66667 9.16667 3.66667Z" fill="black"/>
</svg>
