<svg width="17" height="21" viewBox="0 0 17 21" fill="none" xmlns="http://www.w3.org/2000/svg">
<mask id="mask0_1937_16261" style="mask-type:luminance" maskUnits="userSpaceOnUse" x="0" y="0" width="17" height="21">
<path d="M1 1.91667C1 1.67355 1.09658 1.44039 1.26849 1.26849C1.44039 1.09658 1.67355 1 1.91667 1H11.0833L15.6667 5.58333V18.4167C15.6667 18.6598 15.5701 18.8929 15.3982 19.0648C15.2263 19.2368 14.9931 19.3333 14.75 19.3333H1.91667C1.67355 19.3333 1.44039 19.2368 1.26849 19.0648C1.09658 18.8929 1 18.6598 1 18.4167V1.91667Z" fill="white" stroke="white" stroke-width="2" stroke-linejoin="round"/>
<path d="M4.6665 8.33337H11.9998M4.6665 12H11.9998" stroke="black" stroke-width="2" stroke-linecap="round" stroke-linejoin="round"/>
</mask>
<g mask="url(#mask0_1937_16261)">
<path d="M-2.6665 -0.833374H19.3335V21.1666H-2.6665V-0.833374Z" fill="black"/>
</g>
</svg>
