<svg width="50" height="50" viewBox="0 0 50 50" fill="none" xmlns="http://www.w3.org/2000/svg">
<rect x="0.5" y="0.5" width="49" height="49" rx="24.5" stroke="#F63D68"/>
<path d="M18.0879 19.4668C16.502 19.4668 15.709 18.6966 15.709 17.1562V11.6328C15.709 10.0924 16.502 9.32227 18.0879 9.32227H30.9121C32.498 9.32227 33.291 10.0924 33.291 11.6328V17.1562C33.291 18.6966 32.498 19.4668 30.9121 19.4668H18.0879ZM18.8535 17.1699H30.1465C30.4199 17.1699 30.6296 17.1016 30.7754 16.9648C30.9212 16.8281 30.9941 16.6276 30.9941 16.3633V12.4121C30.9941 12.1569 30.9212 11.9609 30.7754 11.8242C30.6296 11.6875 30.4199 11.6191 30.1465 11.6191H18.8535C18.5801 11.6191 18.3704 11.6875 18.2246 11.8242C18.0788 11.9609 18.0059 12.1569 18.0059 12.4121V16.3633C18.0059 16.6276 18.0788 16.8281 18.2246 16.9648C18.3704 17.1016 18.5801 17.1699 18.8535 17.1699ZM18.5117 24.0742V18.2637H21.123V24.0742H18.5117ZM27.877 24.0742V18.2637H30.4883V24.0742H27.877ZM16.8711 29.6523C15.3672 29.6523 14.6152 28.9277 14.6152 27.4785V25.4004C14.6152 23.9512 15.3672 23.2266 16.8711 23.2266H32.1289C33.6328 23.2266 34.3848 23.9512 34.3848 25.4004V27.4785C34.3848 28.9277 33.6328 29.6523 32.1289 29.6523H16.8711ZM17.5 27.3555H31.5C31.8919 27.3555 32.0879 27.1777 32.0879 26.8223V26.0566C32.0879 25.7012 31.8919 25.5234 31.5 25.5234H17.5C17.1081 25.5234 16.9121 25.7012 16.9121 26.0566V26.8223C16.9121 27.1777 17.1081 27.3555 17.5 27.3555ZM17.1992 38.9219C16.8711 38.9219 16.5977 38.8171 16.3789 38.6074C16.1693 38.3978 16.0645 38.1243 16.0645 37.7871V28.9414H18.7578V37.7871C18.7578 38.1243 18.653 38.3978 18.4434 38.6074C18.2337 38.8171 17.9603 38.9219 17.623 38.9219H17.1992ZM18.0469 32.8379V30.7734H30.9531V32.8379H18.0469ZM31.377 38.9219C31.0397 38.9219 30.7663 38.8171 30.5566 38.6074C30.347 38.3978 30.2422 38.1243 30.2422 37.7871V28.9414H32.9355V37.7871C32.9355 38.1243 32.8262 38.3978 32.6074 38.6074C32.3978 38.8171 32.1289 38.9219 31.8008 38.9219H31.377Z" fill="#697989"/>
</svg>
