<svg width="60" height="60" viewBox="0 0 60 60" fill="none" xmlns="http://www.w3.org/2000/svg">
<path d="M33.9576 16.9422C33.7973 16.6614 33.5648 16.4285 33.2843 16.2677C33.0037 16.1068 32.6853 16.0239 32.362 16.0275H26.8809C26.5407 16.0243 26.2064 16.1155 25.9149 16.2909C25.6234 16.4662 25.3862 16.7189 25.2296 17.0209C24.9803 17.5061 24.662 18.1505 24.3091 18.9042H34.9894C34.663 18.2411 34.319 17.5869 33.9576 16.9422Z" fill="#D0D5DD"/>
<path fill-rule="evenodd" clip-rule="evenodd" d="M20.959 30.4108C20.959 27.4536 22.2247 23.7368 23.456 20.8218H35.8738C37.0551 23.5642 38.2193 27.1026 38.2193 30.4108V43.8355C38.2193 44.8527 37.8151 45.8284 37.0958 46.5477C36.3765 47.267 35.4009 47.6711 34.3836 47.6711H24.7946C23.7773 47.6711 22.8017 47.267 22.0824 46.5477C21.3631 45.8284 20.959 44.8527 20.959 43.8355V30.4108ZM23.8357 30.4108C23.5814 30.4108 23.3375 30.5118 23.1576 30.6917C22.9778 30.8715 22.8768 31.1154 22.8768 31.3697V42.8766C22.8768 43.1309 22.9778 43.3748 23.1576 43.5546C23.3375 43.7345 23.5814 43.8355 23.8357 43.8355C24.09 43.8355 24.3339 43.7345 24.5137 43.5546C24.6936 43.3748 24.7946 43.1309 24.7946 42.8766V31.3697C24.7946 31.1154 24.6936 30.8715 24.5137 30.6917C24.3339 30.5118 24.09 30.4108 23.8357 30.4108Z" fill="#D0D5DD"/>
<path d="M34.3833 13.1506H24.7943C23.7351 13.1506 22.8765 14.0093 22.8765 15.0684V16.9863C22.8765 18.0454 23.7351 18.9041 24.7943 18.9041H34.3833C35.4425 18.9041 36.3011 18.0454 36.3011 16.9863V15.0684C36.3011 14.0093 35.4425 13.1506 34.3833 13.1506Z" fill="#D0D5DD"/>
<path fill-rule="evenodd" clip-rule="evenodd" d="M30 2.46575C14.7933 2.46575 2.46575 14.7933 2.46575 30C2.46575 45.2067 14.7933 57.5342 30 57.5342C45.2067 57.5342 57.5342 45.2067 57.5342 30C57.5342 14.7933 45.2067 2.46575 30 2.46575ZM0 30C0 13.4315 13.4315 0 30 0C46.5685 0 60 13.4315 60 30C60 46.5685 46.5685 60 30 60C13.4315 60 0 46.5685 0 30Z" fill="#D0D5DD"/>
<path fill-rule="evenodd" clip-rule="evenodd" d="M50.6492 9.35085C51.1307 9.83232 51.1307 10.6129 50.6492 11.0944L11.0944 50.6492C10.6129 51.1307 9.83232 51.1307 9.35085 50.6492C8.86938 50.1677 8.86938 49.3871 9.35085 48.9056L48.9056 9.35085C49.3871 8.86938 50.1677 8.86938 50.6492 9.35085Z" fill="#D0D5DD"/>
</svg>
