<svg width="50" height="50" viewBox="0 0 50 50" fill="none" xmlns="http://www.w3.org/2000/svg">
<rect x="0.5" y="0.5" width="49" height="49" rx="24.5" stroke="#F63D68"/>
<path d="M15.5732 18.7461C15.1436 18.7461 14.7533 18.6458 14.4023 18.4453C14.0514 18.2376 13.7721 17.9583 13.5645 17.6074C13.3568 17.2565 13.2529 16.8662 13.2529 16.4365C13.2529 16.0068 13.3568 15.6165 13.5645 15.2656C13.7721 14.9147 14.0514 14.6354 14.4023 14.4277C14.7533 14.2201 15.1436 14.1162 15.5732 14.1162C16.0029 14.1162 16.3932 14.2201 16.7441 14.4277C17.0951 14.6354 17.3743 14.9147 17.582 15.2656C17.7897 15.6165 17.8936 16.0068 17.8936 16.4365C17.8936 16.8662 17.7897 17.2565 17.582 17.6074C17.3743 17.9583 17.0951 18.2376 16.7441 18.4453C16.3932 18.6458 16.0029 18.7461 15.5732 18.7461ZM11.8672 38.0713C11.5234 38.0713 11.2585 37.9388 11.0723 37.6738C10.8932 37.4089 10.8538 37.1081 10.9541 36.7715C10.9684 36.7214 11.015 36.5208 11.0938 36.1699C11.1797 35.819 11.2871 35.375 11.416 34.8379C11.5449 34.3008 11.681 33.7207 11.8242 33.0977C11.9746 32.4746 12.1143 31.8659 12.2432 31.2715C12.3792 30.6699 12.4974 30.1364 12.5977 29.6709C12.6979 29.1982 12.766 28.8509 12.8018 28.6289C12.8519 28.3353 12.8913 27.9808 12.9199 27.5654C12.9486 27.1501 12.9701 26.7168 12.9844 26.2656C13.0059 25.8145 13.0202 25.3848 13.0273 24.9766C13.0345 24.5684 13.0381 24.2246 13.0381 23.9453C13.0381 23.8594 12.9987 23.8057 12.9199 23.7842C12.8483 23.7555 12.7874 23.777 12.7373 23.8486C12.5368 24.1351 12.304 24.4645 12.0391 24.8369C11.7741 25.2021 11.5127 25.5674 11.2549 25.9326C10.9971 26.2979 10.7679 26.6165 10.5674 26.8887C10.374 27.1608 10.238 27.3398 10.1592 27.4258C10.0016 27.6048 9.80469 27.7122 9.56836 27.748C9.33919 27.7839 9.12077 27.7409 8.91309 27.6191C8.63379 27.4759 8.45833 27.279 8.38672 27.0283C8.32227 26.7705 8.34733 26.5378 8.46191 26.3301C8.50488 26.2513 8.55143 26.1725 8.60156 26.0938C8.65885 26.0078 8.71615 25.9255 8.77344 25.8467L11.5557 21.7539C11.8493 21.3171 12.1751 20.9626 12.5332 20.6904C12.8984 20.4111 13.3245 20.207 13.8115 20.0781C14.3057 19.9421 14.8929 19.874 15.5732 19.874C16.2536 19.874 16.8372 19.9421 17.3242 20.0781C17.8184 20.207 18.2445 20.4111 18.6025 20.6904C18.9678 20.9697 19.2972 21.3242 19.5908 21.7539L21.2559 24.1816C20.8118 24.1888 20.443 24.3356 20.1494 24.6221C19.863 24.9085 19.6875 25.2165 19.623 25.5459L18.4092 23.8486C18.3519 23.777 18.2874 23.752 18.2158 23.7734C18.1442 23.7949 18.1084 23.8486 18.1084 23.9346C18.1084 24.2139 18.112 24.5612 18.1191 24.9766C18.1263 25.3848 18.137 25.8145 18.1514 26.2656C18.1729 26.7168 18.1979 27.1501 18.2266 27.5654C18.2552 27.9808 18.291 28.3353 18.334 28.6289C18.3698 28.8509 18.4378 29.1982 18.5381 29.6709C18.6383 30.1364 18.7565 30.6699 18.8926 31.2715C19.0286 31.8659 19.1683 32.4746 19.3115 33.0977C19.4619 33.7207 19.598 34.3008 19.7197 34.8379C19.8486 35.375 19.9561 35.819 20.042 36.1699C20.1279 36.5208 20.1781 36.7214 20.1924 36.7715C20.2926 37.1081 20.2497 37.4089 20.0635 37.6738C19.8844 37.9388 19.623 38.0713 19.2793 38.0713C18.7637 38.0713 18.4199 37.7562 18.248 37.126C18.1764 36.861 18.0798 36.4886 17.958 36.0088C17.8363 35.5361 17.7002 35.0133 17.5498 34.4404C17.4066 33.8675 17.2633 33.3018 17.1201 32.7432C16.9769 32.1774 16.8444 31.6689 16.7227 31.2178C16.6009 30.7666 16.5042 30.4336 16.4326 30.2188C16.3109 29.832 16.1927 29.5563 16.0781 29.3916C15.9635 29.2269 15.7952 29.1445 15.5732 29.1445C15.3512 29.1445 15.1829 29.2269 15.0684 29.3916C14.9538 29.5563 14.8356 29.832 14.7139 30.2188C14.6423 30.4336 14.5456 30.7666 14.4238 31.2178C14.3021 31.6689 14.166 32.1774 14.0156 32.7432C13.8724 33.3018 13.7292 33.8675 13.5859 34.4404C13.4427 35.0133 13.3102 35.5361 13.1885 36.0088C13.0667 36.4886 12.9701 36.861 12.8984 37.126C12.7266 37.7562 12.3828 38.0713 11.8672 38.0713ZM24.5 26.1689C24.0273 26.1689 23.6227 26.0007 23.2861 25.6641C22.9495 25.3275 22.7812 24.9229 22.7812 24.4502C22.7812 23.9775 22.9495 23.5729 23.2861 23.2363C23.6227 22.8997 24.0273 22.7314 24.5 22.7314C24.9727 22.7314 25.3773 22.8997 25.7139 23.2363C26.0576 23.5729 26.2295 23.9775 26.2295 24.4502C26.2295 24.9229 26.0576 25.3275 25.7139 25.6641C25.3773 26.0007 24.9727 26.1689 24.5 26.1689ZM22.2227 38.0713C21.9147 38.0713 21.682 37.9531 21.5244 37.7168C21.3669 37.4805 21.3239 37.2227 21.3955 36.9434C21.4098 36.9076 21.4528 36.7393 21.5244 36.4385C21.596 36.1449 21.682 35.7796 21.7822 35.3428C21.8825 34.9131 21.9863 34.4655 22.0938 34C22.2012 33.5417 22.2943 33.1263 22.373 32.7539C22.459 32.3815 22.5163 32.1094 22.5449 31.9375C22.5807 31.7155 22.6058 31.4398 22.6201 31.1104C22.6416 30.7738 22.6559 30.4479 22.6631 30.1328C22.6702 29.8177 22.6738 29.5706 22.6738 29.3916C22.6738 29.234 22.6488 29.1016 22.5986 28.9941C22.5557 28.8796 22.4912 28.7686 22.4053 28.6611C22.1475 28.3389 21.8789 28.0166 21.5996 27.6943C21.3275 27.3721 21.0911 27.0928 20.8906 26.8564C20.6901 26.6201 20.5684 26.4697 20.5254 26.4053C20.4036 26.2191 20.3571 26.0257 20.3857 25.8252C20.4215 25.6175 20.5146 25.4385 20.665 25.2881C20.8226 25.1019 21.0231 25.0088 21.2666 25.0088C21.5101 25.0016 21.7035 25.0732 21.8467 25.2236L22.9854 26.4375C23.2217 26.6953 23.4508 26.8851 23.6729 27.0068C23.902 27.1214 24.1777 27.1787 24.5 27.1787C24.8223 27.1787 25.0944 27.1214 25.3164 27.0068C25.5456 26.8851 25.7783 26.6953 26.0146 26.4375L27.1533 25.2236C27.2965 25.0732 27.4863 25.0016 27.7227 25.0088C27.9661 25.0088 28.1702 25.1019 28.335 25.2881C28.4782 25.4385 28.5677 25.6175 28.6035 25.8252C28.6393 26.0257 28.5928 26.2191 28.4639 26.4053C28.4281 26.4697 28.3099 26.6201 28.1094 26.8564C27.9089 27.0928 27.6689 27.3721 27.3896 27.6943C27.1175 28.0166 26.8525 28.3389 26.5947 28.6611C26.5088 28.7686 26.4408 28.8796 26.3906 28.9941C26.3405 29.1016 26.3154 29.234 26.3154 29.3916C26.3154 29.5706 26.319 29.8177 26.3262 30.1328C26.3333 30.4479 26.3477 30.7738 26.3691 31.1104C26.3906 31.4398 26.4193 31.7155 26.4551 31.9375C26.4837 32.1094 26.5374 32.3815 26.6162 32.7539C26.7021 33.1263 26.7952 33.5417 26.8955 34C27.0029 34.4655 27.1068 34.9131 27.207 35.3428C27.3145 35.7796 27.404 36.1449 27.4756 36.4385C27.5472 36.7393 27.5866 36.9076 27.5938 36.9434C27.6654 37.2227 27.6224 37.4805 27.4648 37.7168C27.3073 37.9531 27.0781 38.0713 26.7773 38.0713C26.5697 38.0713 26.387 38.0068 26.2295 37.8779C26.0719 37.7562 25.9609 37.5628 25.8965 37.2979C25.8392 37.0973 25.7604 36.7965 25.6602 36.3955C25.5599 36.0016 25.4525 35.5755 25.3379 35.1172C25.2233 34.666 25.1159 34.2507 25.0156 33.8711C24.9225 33.4915 24.8473 33.2158 24.79 33.0439C24.7184 32.8219 24.6647 32.6895 24.6289 32.6465C24.6003 32.5964 24.5573 32.5713 24.5 32.5713C24.4427 32.5713 24.3962 32.5964 24.3604 32.6465C24.3317 32.6895 24.278 32.8219 24.1992 33.0439C24.1491 33.2158 24.0739 33.4915 23.9736 33.8711C23.8734 34.2507 23.766 34.666 23.6514 35.1172C23.5439 35.5755 23.4401 36.0016 23.3398 36.3955C23.2396 36.7965 23.1608 37.0973 23.1035 37.2979C23.0391 37.5628 22.9245 37.7562 22.7598 37.8779C22.6022 38.0068 22.4232 38.0713 22.2227 38.0713ZM33.4268 18.7461C32.9971 18.7461 32.6068 18.6458 32.2559 18.4453C31.9049 18.2376 31.6257 17.9583 31.418 17.6074C31.2103 17.2565 31.1064 16.8662 31.1064 16.4365C31.1064 16.0068 31.2103 15.6165 31.418 15.2656C31.6257 14.9147 31.9049 14.6354 32.2559 14.4277C32.6068 14.2201 32.9971 14.1162 33.4268 14.1162C33.8564 14.1162 34.2432 14.2201 34.5869 14.4277C34.9378 14.6354 35.2171 14.9147 35.4248 15.2656C35.6325 15.6165 35.7363 16.0068 35.7363 16.4365C35.7363 16.8662 35.6325 17.2565 35.4248 17.6074C35.2171 17.9583 34.9378 18.2376 34.5869 18.4453C34.2432 18.6458 33.8564 18.7461 33.4268 18.7461ZM29.7207 38.0713C29.377 38.0713 29.112 37.9388 28.9258 37.6738C28.7467 37.4089 28.7074 37.1081 28.8076 36.7715C28.8148 36.7214 28.8613 36.5208 28.9473 36.1699C29.0332 35.819 29.1406 35.375 29.2695 34.8379C29.3984 34.3008 29.5345 33.7207 29.6777 33.0977C29.821 32.4746 29.9606 31.8659 30.0967 31.2715C30.2327 30.6699 30.3509 30.1364 30.4512 29.6709C30.5514 29.1982 30.6195 28.8509 30.6553 28.6289C30.6982 28.3353 30.734 27.9808 30.7627 27.5654C30.7985 27.1501 30.8236 26.7168 30.8379 26.2656C30.8594 25.8145 30.8737 25.3848 30.8809 24.9766C30.888 24.5612 30.8916 24.2139 30.8916 23.9346C30.8916 23.8486 30.8522 23.7949 30.7734 23.7734C30.7018 23.752 30.641 23.777 30.5908 23.8486L29.377 25.5459C29.3125 25.2165 29.1335 24.9085 28.8398 24.6221C28.5534 24.3356 28.1846 24.1888 27.7334 24.1816L29.4092 21.7539C29.7028 21.3242 30.0286 20.9697 30.3867 20.6904C30.752 20.4111 31.1781 20.207 31.665 20.0781C32.1592 19.9421 32.7464 19.874 33.4268 19.874C34.1071 19.874 34.6908 19.9421 35.1777 20.0781C35.6647 20.207 36.0872 20.4111 36.4453 20.6904C36.8105 20.9626 37.1436 21.3171 37.4443 21.7539L40.2158 25.8467C40.2731 25.9255 40.3268 26.0078 40.377 26.0938C40.4342 26.1725 40.488 26.2513 40.5381 26.3301C40.6455 26.5378 40.6634 26.7705 40.5918 27.0283C40.5273 27.279 40.359 27.4759 40.0869 27.6191C39.8721 27.7409 39.6465 27.7839 39.4102 27.748C39.181 27.7122 38.9876 27.6048 38.8301 27.4258C38.7585 27.3398 38.6224 27.1608 38.4219 26.8887C38.2285 26.6165 37.9993 26.2979 37.7344 25.9326C37.4766 25.5674 37.2152 25.2021 36.9502 24.8369C36.6924 24.4645 36.4596 24.1351 36.252 23.8486C36.209 23.777 36.1481 23.7555 36.0693 23.7842C35.9977 23.8057 35.9619 23.8594 35.9619 23.9453C35.9619 24.2246 35.9655 24.5684 35.9727 24.9766C35.9798 25.3848 35.9906 25.8145 36.0049 26.2656C36.0192 26.7168 36.0407 27.1501 36.0693 27.5654C36.1051 27.9808 36.1445 28.3353 36.1875 28.6289C36.2233 28.8509 36.2913 29.1982 36.3916 29.6709C36.4919 30.1364 36.61 30.6699 36.7461 31.2715C36.8822 31.8659 37.0218 32.4746 37.165 33.0977C37.3083 33.7207 37.4443 34.3008 37.5732 34.8379C37.7021 35.375 37.8096 35.819 37.8955 36.1699C37.9814 36.5208 38.0316 36.7214 38.0459 36.7715C38.139 37.1081 38.096 37.4089 37.917 37.6738C37.738 37.9388 37.4766 38.0713 37.1328 38.0713C36.6172 38.0713 36.2734 37.7562 36.1016 37.126C36.0299 36.861 35.9333 36.4886 35.8115 36.0088C35.6898 35.5361 35.5537 35.0133 35.4033 34.4404C35.2601 33.8675 35.1169 33.3018 34.9736 32.7432C34.8304 32.1774 34.6979 31.6689 34.5762 31.2178C34.4544 30.7666 34.3577 30.4336 34.2861 30.2188C34.1644 29.832 34.0426 29.5563 33.9209 29.3916C33.8063 29.2269 33.6416 29.1445 33.4268 29.1445C33.2048 29.1445 33.0365 29.2269 32.9219 29.3916C32.8073 29.5563 32.6891 29.832 32.5674 30.2188C32.4886 30.4336 32.3883 30.7666 32.2666 31.2178C32.152 31.6689 32.0195 32.1774 31.8691 32.7432C31.7259 33.3018 31.5827 33.8675 31.4395 34.4404C31.2962 35.0133 31.1637 35.5361 31.042 36.0088C30.9202 36.4886 30.8236 36.861 30.752 37.126C30.5801 37.7562 30.2363 38.0713 29.7207 38.0713Z" fill="#697989"/>
</svg>
