<svg width="200" height="86" viewBox="0 0 200 86" fill="none" xmlns="http://www.w3.org/2000/svg">
<path d="M174.955 6.16439C158.684 0.108708 143.268 13.7796 138.302 25.087C130.971 24.5101 132.636 23.2057 133.219 22.2025C149.061 -5.02768 170.464 -0.287563 176.611 1.4338C190.207 5.24109 219.968 28.2808 179.684 84.0469C177.708 86.7826 171.565 85.2316 175.902 80.2396C184.46 70.3878 212.426 20.1108 174.955 6.16439Z" fill="url(#paint0_linear_2957_7181)"/>
<path d="M135.11 19.6649L133.1 24.1648C134.282 24.7417 138.026 31.3185 139.603 34.78C141.1 34.8953 143.98 34.7065 143.859 33.0492C143.741 31.4339 138.893 22.6649 135.11 19.6649Z" fill="url(#paint1_linear_2957_7181)"/>
<path d="M137.238 29.3103L133.266 24.1634C133.073 24.1634 130.858 32.7416 130.617 36.8591C130.858 38.0029 135.673 39.8988 135.673 38.346C135.673 36.516 136.275 31.5978 137.238 29.3103Z" fill="url(#paint2_linear_2957_7181)"/>
<path d="M144.805 45.3385C142.858 51.6942 130.617 52.6639 130.617 36.972H134.796C135.296 36.972 135.698 37.3762 135.685 37.8762L135.684 37.928C135.617 40.551 135.516 44.4718 138.775 44.4718C141.85 44.4718 140.549 36.9718 139.13 33.8567C138.477 32.4227 142.086 31.5879 143.623 32.2417C144.332 33.9724 146.697 39.1646 144.805 45.3385Z" fill="url(#paint3_linear_2957_7181)"/>
<path d="M133.455 24.6263C115.986 9.95709 102.952 25.2008 103.035 40.1387C103.056 43.7478 101.735 49.2463 99.5586 46.3674C99.3583 46.1025 99.2195 45.8386 99.1669 45.6258C94.0886 25.086 113.828 2.70334 135.11 19.6641C138.303 22.8939 134.401 25.4206 133.455 24.6263Z" fill="url(#paint4_linear_2957_7181)"/>
<path fill-rule="evenodd" clip-rule="evenodd" d="M15.3941 23.5998C9.9651 23.5998 5.56406 28.0028 5.56406 33.4342V50.0365C5.56406 51.5737 4.3185 52.8198 2.78203 52.8198C1.24556 52.8198 0 51.5737 0 50.0365V33.4342C0 24.9285 6.89215 18.0332 15.3941 18.0332C23.896 18.0332 30.7881 24.9285 30.7881 33.4342V50.0365C30.7881 51.5737 29.5426 52.8198 28.0061 52.8198C26.4696 52.8198 25.2241 51.5737 25.2241 50.0365V33.4342C25.2241 28.0028 20.823 23.5998 15.3941 23.5998Z" fill="#E31B54"/>
<path fill-rule="evenodd" clip-rule="evenodd" d="M40.7842 23.5998C35.2847 23.5998 30.8265 28.0028 30.8265 33.4342V50.0365C30.8265 51.5737 29.5648 52.8198 28.0083 52.8198C26.4519 52.8198 25.1902 51.5737 25.1902 50.0365V33.4342C25.1902 24.9285 32.1718 18.0332 40.7842 18.0332C49.3965 18.0332 56.3781 24.9285 56.3781 33.4342V50.0365C56.3781 51.5737 55.1164 52.8198 53.56 52.8198C52.0036 52.8198 50.7418 51.5737 50.7418 50.0365V33.4342C50.7418 28.0028 46.2836 23.5998 40.7842 23.5998Z" fill="#E31B54"/>
<path fill-rule="evenodd" clip-rule="evenodd" d="M15.3941 23.5998C9.9651 23.5998 5.56406 28.0028 5.56406 33.4342V50.0365C5.56406 51.5737 4.3185 52.8198 2.78203 52.8198C1.24556 52.8198 0 51.5737 0 50.0365V33.4342C0 24.9285 6.89215 18.0332 15.3941 18.0332C23.896 18.0332 30.7881 24.9285 30.7881 33.4342V50.0365C30.7881 51.5737 29.5426 52.8198 28.0061 52.8198C26.4696 52.8198 25.2241 51.5737 25.2241 50.0365V33.4342C25.2241 28.0028 20.823 23.5998 15.3941 23.5998Z" fill="#E31B54"/>
<path fill-rule="evenodd" clip-rule="evenodd" d="M40.7842 23.5998C35.2847 23.5998 30.8265 28.0028 30.8265 33.4342V50.0365C30.8265 51.5737 29.5648 52.8198 28.0083 52.8198C26.4519 52.8198 25.1902 51.5737 25.1902 50.0365V33.4342C25.1902 24.9285 32.1718 18.0332 40.7842 18.0332C49.3965 18.0332 56.3781 24.9285 56.3781 33.4342V50.0365C56.3781 51.5737 55.1164 52.8198 53.56 52.8198C52.0036 52.8198 50.7418 51.5737 50.7418 50.0365V33.4342C50.7418 28.0028 46.2836 23.5998 40.7842 23.5998Z" fill="#E31B54"/>
<path fill-rule="evenodd" clip-rule="evenodd" d="M76.5705 23.5998C70.0388 23.5998 64.7438 28.8948 64.7438 35.4265C64.7438 41.9582 70.0388 47.2532 76.5705 47.2532C83.1022 47.2532 88.3972 41.9582 88.3972 35.4265C88.3972 28.8948 83.1022 23.5998 76.5705 23.5998ZM59.1772 35.4265C59.1772 25.8204 66.9645 18.0332 76.5705 18.0332C86.1766 18.0332 93.9638 25.8204 93.9638 35.4265C93.9638 45.0325 86.1766 52.8198 76.5705 52.8198C66.9645 52.8198 59.1772 45.0325 59.1772 35.4265Z" fill="#E31B54"/>
<path fill-rule="evenodd" clip-rule="evenodd" d="M91.1646 32.8274C92.7104 32.8274 93.9636 34.0621 93.9636 35.5852V50.0618C93.9636 51.5849 92.7104 52.8197 91.1646 52.8197C89.6188 52.8197 88.3657 51.5849 88.3657 50.0618V35.5852C88.3657 34.0621 89.6188 32.8274 91.1646 32.8274Z" fill="#E31B54"/>
<path fill-rule="evenodd" clip-rule="evenodd" d="M135.367 61.1648C130.854 61.1648 127.196 64.8087 127.196 69.3037V83.0435C127.196 84.3156 126.161 85.3469 124.884 85.3469C123.607 85.3469 122.572 84.3156 122.572 83.0435V69.3037C122.572 62.2644 128.3 56.558 135.367 56.558C142.433 56.558 148.162 62.2644 148.162 69.3037V83.0435C148.162 84.3156 147.126 85.3469 145.849 85.3469C144.572 85.3469 143.537 84.3156 143.537 83.0435V69.3037C143.537 64.8087 139.879 61.1648 135.367 61.1648Z" fill="#E31B54"/>
<path fill-rule="evenodd" clip-rule="evenodd" d="M156.159 61.1648C151.646 61.1648 147.988 64.8087 147.988 69.3037V83.0435C147.988 84.3156 146.953 85.3469 145.676 85.3469C144.399 85.3469 143.364 84.3156 143.364 83.0435V69.3037C143.364 62.2644 149.092 56.558 156.159 56.558C163.225 56.558 168.954 62.2644 168.954 69.3037V83.0435C168.954 84.3156 167.918 85.3469 166.641 85.3469C165.364 85.3469 164.329 84.3156 164.329 83.0435V69.3037C164.329 64.8087 160.671 61.1648 156.159 61.1648Z" fill="#E31B54"/>
<path fill-rule="evenodd" clip-rule="evenodd" d="M53.7787 61.1648C49.2663 61.1648 45.6083 64.8087 45.6083 69.3037V83.0435C45.6083 84.3156 44.573 85.3469 43.296 85.3469C42.0189 85.3469 40.9836 84.3156 40.9836 83.0435V69.3037C40.9836 62.2644 46.7122 56.558 53.7787 56.558C60.8452 56.558 66.5738 62.2644 66.5738 69.3037V83.0435C66.5738 84.3156 65.5385 85.3469 64.2614 85.3469C62.9844 85.3469 61.9491 84.3156 61.9491 83.0435V69.3037C61.9491 64.8087 58.2911 61.1648 53.7787 61.1648Z" fill="#E31B54"/>
<path fill-rule="evenodd" clip-rule="evenodd" d="M74.5709 61.1648C70.0586 61.1648 66.4006 64.8087 66.4006 69.3037V83.0435C66.4006 84.3156 65.3653 85.3469 64.0882 85.3469C62.8111 85.3469 61.7759 84.3156 61.7759 83.0435V69.3037C61.7759 62.2644 67.5044 56.558 74.5709 56.558C81.6375 56.558 87.366 62.2644 87.366 69.3037V83.0435C87.366 84.3156 86.3307 85.3469 85.0537 85.3469C83.7766 85.3469 82.7413 84.3156 82.7413 83.0435V69.3037C82.7413 64.8087 79.0833 61.1648 74.5709 61.1648Z" fill="#E31B54"/>
<path fill-rule="evenodd" clip-rule="evenodd" d="M105.378 61.1648C99.9725 61.1648 95.5905 65.5469 95.5905 70.9525C95.5905 76.358 99.9725 80.7401 105.378 80.7401C110.784 80.7401 115.166 76.358 115.166 70.9525C115.166 65.5469 110.784 61.1648 105.378 61.1648ZM90.9836 70.9525C90.9836 63.0026 97.4283 56.558 105.378 56.558C113.328 56.558 119.773 63.0026 119.773 70.9525C119.773 78.9023 113.328 85.3469 105.378 85.3469C97.4283 85.3469 90.9836 78.9023 90.9836 70.9525Z" fill="#E31B54"/>
<path fill-rule="evenodd" clip-rule="evenodd" d="M117.573 68.5531C118.788 68.5531 119.773 69.5903 119.773 70.8697V83.03C119.773 84.3094 118.788 85.3466 117.573 85.3466C116.359 85.3466 115.374 84.3094 115.374 83.03V70.8697C115.374 69.5903 116.359 68.5531 117.573 68.5531Z" fill="#E31B54"/>
<defs>
<linearGradient id="paint0_linear_2957_7181" x1="197.214" y1="12.5133" x2="150.111" y2="57.5197" gradientUnits="userSpaceOnUse">
<stop stop-color="#EB7C46"/>
<stop offset="1" stop-color="#E21650"/>
</linearGradient>
<linearGradient id="paint1_linear_2957_7181" x1="143.418" y1="21.8841" x2="135.148" y2="29.0026" gradientUnits="userSpaceOnUse">
<stop stop-color="#EB7C46"/>
<stop offset="1" stop-color="#E21650"/>
</linearGradient>
<linearGradient id="paint2_linear_2957_7181" x1="136.965" y1="26.3278" x2="130.124" y2="30.0418" gradientUnits="userSpaceOnUse">
<stop stop-color="#EB7C46"/>
<stop offset="1" stop-color="#E21650"/>
</linearGradient>
<linearGradient id="paint3_linear_2957_7181" x1="144.907" y1="34.602" x2="135.164" y2="44.569" gradientUnits="userSpaceOnUse">
<stop stop-color="#EB7C46"/>
<stop offset="1" stop-color="#E21650"/>
</linearGradient>
<linearGradient id="paint4_linear_2957_7181" x1="134.773" y1="18.6486" x2="116.873" y2="42.9191" gradientUnits="userSpaceOnUse">
<stop stop-color="#EB7C46"/>
<stop offset="1" stop-color="#E21650"/>
</linearGradient>
</defs>
</svg>
