<svg width="16" height="16" viewBox="0 0 16 16" fill="none" xmlns="http://www.w3.org/2000/svg">
<rect width="16" height="16" rx="8" fill="black"/>
<g clip-path="url(#clip0_1937_16125)">
<path d="M8.74956 5.98286L10.2976 7.53037C10.4382 7.67106 10.629 7.75013 10.8279 7.75018C11.0268 7.75023 11.2176 7.67125 11.3583 7.53062C11.499 7.38998 11.5781 7.19922 11.5781 7.00029C11.5782 6.80136 11.4992 6.61056 11.3586 6.46986L8.53006 3.64136C8.46041 3.57167 8.37771 3.51638 8.28669 3.47866C8.19566 3.44094 8.09809 3.42152 7.99956 3.42152C7.90103 3.42152 7.80346 3.44094 7.71244 3.47866C7.62141 3.51638 7.53871 3.57167 7.46906 3.64136L4.64056 6.46936C4.5709 6.53903 4.51563 6.62174 4.47793 6.71276C4.44023 6.80378 4.42082 6.90134 4.42082 6.99986C4.42082 7.09839 4.44023 7.19595 4.47793 7.28697C4.51563 7.37799 4.5709 7.4607 4.64056 7.53037C4.71023 7.60003 4.79293 7.65529 4.88396 7.693C4.97498 7.7307 5.07254 7.75011 5.17106 7.75011C5.26959 7.75011 5.36714 7.7307 5.45817 7.693C5.54919 7.65529 5.6319 7.60003 5.70156 7.53037L7.24956 5.98286L7.24956 11.7504C7.24956 11.9493 7.32858 12.14 7.46923 12.2807C7.60988 12.4213 7.80065 12.5004 7.99956 12.5004C8.19847 12.5004 8.38924 12.4213 8.52989 12.2807C8.67054 12.14 8.74956 11.9493 8.74956 11.7504V5.98286Z" fill="white"/>
</g>
<defs>
<clipPath id="clip0_1937_16125">
<rect width="12" height="12" fill="white" transform="matrix(-1 0 0 -1 14 14)"/>
</clipPath>
</defs>
</svg>
