<svg width="60" height="60" viewBox="0 0 60 60" fill="none" xmlns="http://www.w3.org/2000/svg">
<path fill-rule="evenodd" clip-rule="evenodd" d="M23.4034 19.5738C22.4187 19.3005 21.3807 19.2955 20.3936 19.5594C19.4065 19.8234 18.505 20.3468 17.7798 21.0773C17.0546 21.8078 16.5311 22.7195 16.262 23.7209C15.9929 24.7223 15.9876 25.7781 16.2466 26.7822L23.3174 32.1803C23.6255 32.4153 23.8292 32.7652 23.8837 33.1531C23.9382 33.5409 23.8389 33.9348 23.6078 34.2482C23.3767 34.5617 23.0327 34.7689 22.6514 34.8243C22.2701 34.8797 21.8828 34.7787 21.5747 34.5437L15.2242 29.6916C14.5783 31.4334 15.3729 33.4069 17.0297 34.4586L23.0293 38.2732V40.6366C23.0293 41.2634 23.2741 41.8645 23.7098 42.3078C24.1456 42.751 24.7366 43 25.3529 43H34.6473C35.2636 43 35.8546 42.751 36.2904 42.3078C36.7261 41.8645 36.971 41.2634 36.971 40.6366V38.2732L42.9705 34.4586C44.6249 33.4069 45.4196 31.4358 44.7783 29.6963L38.4348 34.5413C38.127 34.777 37.7397 34.8787 37.3582 34.8239C36.9767 34.7692 36.6322 34.5625 36.4005 34.2494C36.1688 33.9363 36.0688 33.5424 36.1227 33.1544C36.1765 32.7663 36.3796 32.4159 36.6875 32.1803L43.7513 26.7869C44.0116 25.7835 44.0078 24.728 43.7401 23.7265C43.4724 22.725 42.9503 21.8128 42.2262 21.0816C41.5021 20.3504 40.6016 19.8259 39.615 19.5608C38.6285 19.2957 37.5908 19.2994 36.6061 19.5714L36.5876 19.6659L34.9053 27.1178C34.8129 27.4931 34.5796 27.8166 34.2553 28.0187C33.931 28.2209 33.5417 28.2855 33.1711 28.1989C32.8004 28.1122 32.4779 27.8811 32.273 27.5552C32.0681 27.2293 31.997 26.8347 32.0751 26.456L33.7574 19.0018C33.7913 18.8454 33.851 18.696 33.934 18.5599C32.8615 17.5564 31.4573 16.9997 30.0001 17C28.4851 17 27.1072 17.5909 26.0732 18.5551C26.1553 18.6891 26.2149 18.838 26.2521 19.0018L27.9344 26.456C28.0125 26.8347 27.9414 27.2293 27.7365 27.5552C27.5316 27.8811 27.2091 28.1122 26.8384 28.1989C26.4678 28.2855 26.0785 28.2209 25.7542 28.0187C25.4299 27.8166 25.1966 27.4931 25.1042 27.1178L23.422 19.6612L23.4034 19.5738Z" fill="#E31B54"/>
<path fill-rule="evenodd" clip-rule="evenodd" d="M30 2.46575C14.7933 2.46575 2.46575 14.7933 2.46575 30C2.46575 45.2067 14.7933 57.5342 30 57.5342C45.2067 57.5342 57.5342 45.2067 57.5342 30C57.5342 14.7933 45.2067 2.46575 30 2.46575ZM0 30C0 13.4315 13.4315 0 30 0C46.5685 0 60 13.4315 60 30C60 46.5685 46.5685 60 30 60C13.4315 60 0 46.5685 0 30Z" fill="#E31B54"/>
<path fill-rule="evenodd" clip-rule="evenodd" d="M50.6492 9.35085C51.1307 9.83232 51.1307 10.6129 50.6492 11.0944L11.0944 50.6492C10.6129 51.1307 9.83232 51.1307 9.35085 50.6492C8.86938 50.1677 8.86938 49.3871 9.35085 48.9056L48.9056 9.35085C49.3871 8.86938 50.1677 8.86938 50.6492 9.35085Z" fill="#E31B54"/>
</svg>
