<svg width="20" height="18" viewBox="0 0 20 18" fill="none" xmlns="http://www.w3.org/2000/svg">
<mask id="mask0_1937_16234" style="mask-type:luminance" maskUnits="userSpaceOnUse" x="0" y="0" width="20" height="18">
<path d="M15.146 1H18.646L17.799 7.125H15.146" stroke="white" stroke-width="2" stroke-linecap="round" stroke-linejoin="round"/>
<path d="M3.33363 1H15.1461V15.875C15.1461 16.1071 15.0539 16.3296 14.8898 16.4937C14.7258 16.6578 14.5032 16.75 14.2711 16.75H4.20863C3.97656 16.75 3.754 16.6578 3.58991 16.4937C3.42581 16.3296 3.33363 16.1071 3.33363 15.875L3.33319 5.59375C3.33319 5.18075 3.13894 4.794 2.82569 4.52494C1.64838 3.51562 -0.862436 1 3.33319 1" fill="white"/>
<path d="M3.33363 1H15.1461V15.875C15.1461 16.1071 15.0539 16.3296 14.8898 16.4937C14.7258 16.6578 14.5032 16.75 14.2711 16.75H4.20863C3.97656 16.75 3.754 16.6578 3.58991 16.4937C3.42581 16.3296 3.33363 16.1071 3.33363 15.875L3.33319 5.59375C3.33319 5.18075 3.13894 4.794 2.82569 4.52494C1.64838 3.51563 -0.862436 1 3.33319 1" stroke="white" stroke-width="2" stroke-linecap="round" stroke-linejoin="round"/>
<path d="M10.771 4.9375H12.521M10.771 8.4375H12.521M10.771 11.9375H12.521" stroke="black" stroke-width="2" stroke-linecap="round" stroke-linejoin="round"/>
</mask>
<g mask="url(#mask0_1937_16234)">
<path d="M-0.604004 -1.625H20.396V19.375H-0.604004V-1.625Z" fill="black"/>
</g>
</svg>
