<svg width="60" height="60" viewBox="0 0 60 60" fill="none" xmlns="http://www.w3.org/2000/svg">
<g clip-path="url(#clip0_1937_15873)">
<mask id="mask0_1937_15873" style="mask-type:luminance" maskUnits="userSpaceOnUse" x="13" y="14" width="33" height="33">
<path d="M27.2763 21.5069H39.8633C39.8633 21.5069 39.8633 24.9316 37.8085 26.9864C35.7537 29.0412 33.6989 29.7261 33.014 29.7261C32.329 29.7261 25.8222 30.411 24.1098 31.7809C22.3975 33.1508 21.3708 35.548 24.1098 37.9453C26.8489 40.3426 31.6441 41.3699 35.0687 40.0001C38.4934 38.6302 40.5482 34.5206 40.5482 34.5206L43.2879 41.3699C43.2879 41.3699 37.8085 43.4247 33.014 44.1097C28.2194 44.7946 23.4249 44.1097 19.3153 40.0001C15.2057 35.8905 14.5201 30.7535 17.9455 26.3015C20.7989 22.5919 25.0783 21.7357 26.4263 21.5528C26.7083 21.5184 26.9922 21.5031 27.2763 21.5069Z" fill="white" stroke="white" stroke-width="4" stroke-linecap="round" stroke-linejoin="round"/>
<path d="M30.9592 29.726L26.8496 21.5068" stroke="white" stroke-width="4"/>
<path d="M25.4795 16.7124H35.0685C36.3401 16.7124 37.5596 17.2175 38.4588 18.1167C39.3579 19.0158 39.8631 20.2353 39.8631 21.5069" stroke="white" stroke-width="4" stroke-linecap="round" stroke-linejoin="round"/>
<path d="M33.699 26.3015C34.4555 26.3015 35.0688 25.6882 35.0688 24.9316C35.0688 24.1751 34.4555 23.5618 33.699 23.5618C32.9424 23.5618 32.3291 24.1751 32.3291 24.9316C32.3291 25.6882 32.9424 26.3015 33.699 26.3015Z" fill="black"/>
</mask>
<g mask="url(#mask0_1937_15873)">
<path d="M13.1509 13.9727H46.0276V46.8494H13.1509V13.9727Z" fill="#667085"/>
</g>
</g>
<path fill-rule="evenodd" clip-rule="evenodd" d="M30 2.46575C14.7933 2.46575 2.46575 14.7933 2.46575 30C2.46575 45.2067 14.7933 57.5342 30 57.5342C45.2067 57.5342 57.5342 45.2067 57.5342 30C57.5342 14.7933 45.2067 2.46575 30 2.46575ZM0 30C0 13.4315 13.4315 0 30 0C46.5685 0 60 13.4315 60 30C60 46.5685 46.5685 60 30 60C13.4315 60 0 46.5685 0 30Z" fill="#667085"/>
<path fill-rule="evenodd" clip-rule="evenodd" d="M50.6492 9.35085C51.1307 9.83232 51.1307 10.6129 50.6492 11.0944L11.0944 50.6492C10.6129 51.1307 9.83232 51.1307 9.35085 50.6492C8.86938 50.1677 8.86938 49.3871 9.35085 48.9056L48.9056 9.35085C49.3871 8.86938 50.1677 8.86938 50.6492 9.35085Z" fill="#667085"/>
<defs>
<clipPath id="clip0_1937_15873">
<rect width="32.8767" height="32.8767" fill="white" transform="translate(13.1509 13.9727)"/>
</clipPath>
</defs>
</svg>
