<svg width="19" height="21" viewBox="0 0 19 21" fill="none" xmlns="http://www.w3.org/2000/svg">
<path d="M9.5 18.3281C8.40104 18.3281 7.36979 18.1198 6.40625 17.7031C5.44271 17.2917 4.59635 16.7214 3.86719 15.9922C3.13802 15.2578 2.5651 14.4115 2.14844 13.4531C1.73698 12.4896 1.53125 11.4583 1.53125 10.3594C1.53125 9.26042 1.73698 8.22917 2.14844 7.26562C2.5651 6.30208 3.13802 5.45573 3.86719 4.72656C4.59635 3.9974 5.44271 3.42708 6.40625 3.01562C7.36979 2.59896 8.40104 2.39062 9.5 2.39062C10.599 2.39062 11.6302 2.59896 12.5938 3.01562C13.5573 3.42708 14.4036 3.9974 15.1328 4.72656C15.862 5.45573 16.4323 6.30208 16.8438 7.26562C17.2604 8.22917 17.4688 9.26042 17.4688 10.3594C17.4688 11.4583 17.2604 12.4896 16.8438 13.4531C16.4323 14.4115 15.862 15.2578 15.1328 15.9922C14.4036 16.7214 13.5573 17.2917 12.5938 17.7031C11.6302 18.1198 10.599 18.3281 9.5 18.3281ZM7.10156 14.0547C7.23698 14.0547 7.34635 14.0286 7.42969 13.9766C7.51302 13.9193 7.60677 13.8203 7.71094 13.6797L9.45312 11.2031H9.48438L11.2188 13.6797C11.3229 13.8203 11.4167 13.9193 11.5 13.9766C11.5885 14.0286 11.6953 14.0547 11.8203 14.0547C12.0078 14.0547 12.1615 14 12.2812 13.8906C12.401 13.7812 12.4609 13.638 12.4609 13.4609C12.4609 13.3099 12.4089 13.1693 12.3047 13.0391L10.2891 10.2812L12.3203 7.51562C12.4245 7.38021 12.4766 7.23698 12.4766 7.08594C12.4766 6.92448 12.4167 6.78906 12.2969 6.67969C12.1823 6.57031 12.0391 6.51562 11.8672 6.51562C11.7422 6.51562 11.6328 6.54427 11.5391 6.60156C11.4505 6.65365 11.3646 6.7474 11.2812 6.88281L9.59375 9.35938H9.55469L7.84375 6.875C7.75 6.74479 7.65625 6.65365 7.5625 6.60156C7.47396 6.54427 7.36198 6.51562 7.22656 6.51562C7.05469 6.51562 6.90625 6.57552 6.78125 6.69531C6.65625 6.8099 6.59375 6.95052 6.59375 7.11719C6.59375 7.27344 6.65104 7.42969 6.76562 7.58594L8.69531 10.2422L6.64844 13.0703C6.55469 13.2057 6.50781 13.3464 6.50781 13.4922C6.50781 13.6484 6.5651 13.7812 6.67969 13.8906C6.79427 14 6.9349 14.0547 7.10156 14.0547Z" fill="#E31B54"/>
</svg>
