<svg width="50" height="50" viewBox="0 0 50 50" fill="none" xmlns="http://www.w3.org/2000/svg">
<rect x="0.5" y="0.5" width="49" height="49" rx="24.5" stroke="#F63D68"/>
<path d="M8.64844 35.6543C8.29297 35.6543 8.01042 35.5495 7.80078 35.3398C7.59115 35.1302 7.48633 34.8477 7.48633 34.4922V25.127C7.48633 23.8236 7.83268 22.8301 8.52539 22.1465C9.2181 21.4538 10.2161 21.1074 11.5195 21.1074H38.0977C39.4102 21.1074 40.4082 21.4538 41.0918 22.1465C41.7845 22.8301 42.1309 23.8236 42.1309 25.127V34.4922C42.1309 34.8477 42.026 35.1302 41.8164 35.3398C41.6068 35.5495 41.3242 35.6543 40.9688 35.6543H40.1484C39.8021 35.6543 39.5195 35.5495 39.3008 35.3398C39.0911 35.1302 38.9863 34.8477 38.9863 34.4922V32.4688C38.9134 32.487 38.7812 32.5052 38.5898 32.5234C38.3984 32.5326 38.2207 32.5371 38.0566 32.5371H11.5605C11.3965 32.5371 11.2188 32.5326 11.0273 32.5234C10.8451 32.5052 10.7129 32.487 10.6309 32.4688V34.4922C10.6309 34.8477 10.5215 35.1302 10.3027 35.3398C10.0931 35.5495 9.8151 35.6543 9.46875 35.6543H8.64844ZM10.2207 30.541H39.3965C39.7064 30.541 39.8613 30.3633 39.8613 30.0078V24.8125C39.8613 24.293 39.7018 23.8783 39.3828 23.5684C39.0729 23.2585 38.6536 23.1035 38.125 23.1035H11.5059C10.9772 23.1035 10.5534 23.2585 10.2344 23.5684C9.91536 23.8783 9.75586 24.293 9.75586 24.8125V30.0078C9.75586 30.3633 9.91081 30.541 10.2207 30.541ZM11.041 21.3945V16.418C11.041 15.151 11.3691 14.1986 12.0254 13.5605C12.6908 12.9134 13.6341 12.5898 14.8555 12.5898H34.7617C35.9922 12.5898 36.9355 12.9134 37.5918 13.5605C38.248 14.1986 38.5762 15.151 38.5762 16.418V21.3945H34.9805V18.5781C34.9805 17.9492 34.8073 17.4661 34.4609 17.1289C34.1146 16.7826 33.6178 16.6094 32.9707 16.6094H28.1719C27.5339 16.6094 27.0417 16.7826 26.6953 17.1289C26.349 17.4661 26.1758 17.9492 26.1758 18.5781V21.3945H23.4414V18.5781C23.4414 17.9492 23.2682 17.4661 22.9219 17.1289C22.5755 16.7826 22.0833 16.6094 21.4453 16.6094H16.6465C15.9993 16.6094 15.5026 16.7826 15.1562 17.1289C14.8099 17.4661 14.6367 17.9492 14.6367 18.5781V21.3945H11.041Z" fill="#697989"/>
</svg>
