<svg width="60" height="60" viewBox="0 0 60 60" fill="none" xmlns="http://www.w3.org/2000/svg">
<path fill-rule="evenodd" clip-rule="evenodd" d="M20.1367 16.9476C19.9818 16.8742 19.8108 16.841 19.6397 16.8511C19.4685 16.8612 19.3026 16.9142 19.1576 17.0053C19.0125 17.0964 18.893 17.2225 18.8101 17.372C18.7272 17.5215 18.6836 17.6894 18.6835 17.8601V23.9703C18.6835 24.292 18.5209 24.6784 18.1957 25.077C17.21 26.2768 15.8219 28.7087 15.8219 32.7977C15.8219 36.5246 17.5799 39.171 20.2525 40.8401C22.8661 42.4729 26.3151 43.1507 29.7945 43.1507C33.2699 43.1507 36.7209 42.4729 39.3386 40.8381C42.0091 39.171 43.7671 36.5246 43.7671 32.7977C43.7671 28.7087 42.379 26.2768 41.3933 25.077C41.0681 24.6784 40.9055 24.292 40.9055 23.9683V17.8601C40.9054 17.6894 40.8619 17.5215 40.779 17.372C40.6961 17.2225 40.5765 17.0964 40.4315 17.0053C40.2864 16.9142 40.1206 16.8612 39.9494 16.8511C39.7782 16.841 39.6072 16.8742 39.4524 16.9476L33.3715 19.8307L33.3105 19.8186C32.9789 19.7464 32.6462 19.6789 32.3126 19.6163C31.5505 19.4747 30.5445 19.3168 29.7966 19.3168C29.0486 19.3168 28.0426 19.4747 27.2805 19.6163C26.8862 19.6911 26.5366 19.764 26.2846 19.8186L26.2236 19.8307L20.1346 16.9496L20.1367 16.9476ZM35.7657 33.9834C35.7657 36.7026 33.091 38.3455 29.7945 38.3455C26.498 38.3455 23.8234 36.828 23.8234 33.9834C23.8234 31.1387 26.498 29.6212 29.7945 29.6212C33.091 29.6212 35.7657 31.2641 35.7657 33.9834ZM24.0795 28.4821C23.7426 28.4821 23.4195 28.3489 23.1813 28.1118C22.9431 27.8746 22.8092 27.553 22.8092 27.2176C22.8092 26.8822 22.9431 26.5606 23.1813 26.3235C23.4195 26.0863 23.7426 25.9531 24.0795 25.9531C24.4164 25.9531 24.7394 26.0863 24.9777 26.3235C25.2159 26.5606 25.3497 26.8822 25.3497 27.2176C25.3497 27.553 25.2159 27.8746 24.9777 28.1118C24.7394 28.3489 24.4164 28.4821 24.0795 28.4821ZM35.5116 28.4821C35.8485 28.4821 36.1716 28.3489 36.4098 28.1118C36.648 27.8746 36.7818 27.553 36.7818 27.2176C36.7818 26.8822 36.648 26.5606 36.4098 26.3235C36.1716 26.0863 35.8485 25.9531 35.5116 25.9531C35.1747 25.9531 34.8516 26.0863 34.6134 26.3235C34.3752 26.5606 34.2414 26.8822 34.2414 27.2176C34.2414 27.553 34.3752 27.8746 34.6134 28.1118C34.8516 28.3489 35.1747 28.4821 35.5116 28.4821ZM31.8269 35.5008C32.1638 35.5008 32.4869 35.3676 32.7251 35.1304C32.9633 34.8933 33.0971 34.5716 33.0971 34.2363C33.0971 33.9009 32.9633 33.5793 32.7251 33.3421C32.4869 33.105 32.1638 32.9717 31.8269 32.9717C31.49 32.9717 31.1669 33.105 30.9287 33.3421C30.6905 33.5793 30.5567 33.9009 30.5567 34.2363C30.5567 34.5716 30.6905 34.8933 30.9287 35.1304C31.1669 35.3676 31.49 35.5008 31.8269 35.5008ZM26.4919 34.2363C26.4919 33.9009 26.6257 33.5793 26.8639 33.3421C27.1022 33.105 27.4253 32.9717 27.7621 32.9717C28.099 32.9717 28.4221 33.105 28.6603 33.3421C28.8986 33.5793 29.0324 33.9009 29.0324 34.2363C29.0324 34.5716 28.8986 34.8933 28.6603 35.1304C28.4221 35.3676 28.099 35.5008 27.7621 35.5008C27.4253 35.5008 27.1022 35.3676 26.8639 35.1304C26.6257 34.8933 26.4919 34.5716 26.4919 34.2363Z" fill="#667085"/>
<path fill-rule="evenodd" clip-rule="evenodd" d="M30 2.46575C14.7933 2.46575 2.46575 14.7933 2.46575 30C2.46575 45.2067 14.7933 57.5342 30 57.5342C45.2067 57.5342 57.5342 45.2067 57.5342 30C57.5342 14.7933 45.2067 2.46575 30 2.46575ZM0 30C0 13.4315 13.4315 0 30 0C46.5685 0 60 13.4315 60 30C60 46.5685 46.5685 60 30 60C13.4315 60 0 46.5685 0 30Z" fill="#667085"/>
<path fill-rule="evenodd" clip-rule="evenodd" d="M50.6492 9.35083C51.1306 9.8323 51.1306 10.6129 50.6492 11.0944L11.0944 50.6492C10.6129 51.1306 9.8323 51.1306 9.35083 50.6492C8.86936 50.1677 8.86936 49.3871 9.35083 48.9056L48.9056 9.35083C49.3871 8.86936 50.1677 8.86936 50.6492 9.35083Z" fill="#667085"/>
</svg>
