<svg width="16" height="16" viewBox="0 0 16 16" fill="none" xmlns="http://www.w3.org/2000/svg">
<rect width="16" height="16" rx="8" fill="black"/>
<g clip-path="url(#clip0_1937_16123)">
<path d="M7.25044 10.0171L5.70244 8.46963C5.56181 8.32894 5.37104 8.24987 5.17212 8.24982C4.97319 8.24977 4.78239 8.32875 4.64169 8.46938C4.50099 8.61002 4.42192 8.80078 4.42188 8.99971C4.42183 9.19864 4.50081 9.38944 4.64144 9.53014L7.46994 12.3586C7.53959 12.4283 7.62229 12.4836 7.71331 12.5213C7.80434 12.5591 7.90191 12.5785 8.00044 12.5785C8.09897 12.5785 8.19654 12.5591 8.28756 12.5213C8.37859 12.4836 8.46129 12.4283 8.53094 12.3586L11.3594 9.53064C11.4291 9.46097 11.4844 9.37826 11.5221 9.28724C11.5598 9.19622 11.5792 9.09866 11.5792 9.00014C11.5792 8.90161 11.5598 8.80405 11.5221 8.71303C11.4844 8.62201 11.4291 8.5393 11.3594 8.46963C11.2898 8.39997 11.2071 8.34471 11.116 8.307C11.025 8.2693 10.9275 8.24989 10.8289 8.24989C10.7304 8.24989 10.6329 8.2693 10.5418 8.307C10.4508 8.34471 10.3681 8.39997 10.2984 8.46963L8.75044 10.0171V4.24963C8.75044 4.05072 8.67142 3.85996 8.53077 3.7193C8.39012 3.57865 8.19935 3.49963 8.00044 3.49963C7.80153 3.49963 7.61076 3.57865 7.47011 3.7193C7.32946 3.85996 7.25044 4.05072 7.25044 4.24963V10.0171Z" fill="white"/>
</g>
<defs>
<clipPath id="clip0_1937_16123">
<rect width="12" height="12" fill="white" transform="translate(2 2)"/>
</clipPath>
</defs>
</svg>
