<svg width="50" height="50" viewBox="0 0 50 50" fill="none" xmlns="http://www.w3.org/2000/svg">
<rect x="0.5" y="0.5" width="49" height="49" rx="24.5" stroke="#F63D68"/>
<path d="M23.8301 29.748C23.3561 29.748 23.0007 29.6113 22.7637 29.3379C22.5267 29.0553 22.4082 28.6953 22.4082 28.2578C22.4082 28.112 22.4082 27.9707 22.4082 27.834C22.4082 27.6882 22.4082 27.5423 22.4082 27.3965C22.4082 26.5944 22.5677 25.8743 22.8867 25.2363C23.2057 24.5892 23.6432 23.9967 24.1992 23.459C24.7643 22.9212 25.4069 22.4017 26.127 21.9004C26.7103 21.4902 27.2253 21.0846 27.6719 20.6836C28.1185 20.2734 28.4648 19.8268 28.7109 19.3438C28.9661 18.8516 29.0938 18.2773 29.0938 17.6211C29.0938 16.8281 28.8796 16.14 28.4512 15.5566C28.0319 14.9733 27.4622 14.5267 26.7422 14.2168C26.0312 13.8978 25.2292 13.7383 24.3359 13.7383C23.6068 13.7383 22.9323 13.8568 22.3125 14.0938C21.7018 14.3307 21.1732 14.7135 20.7266 15.2422C20.2891 15.7617 19.9518 16.4544 19.7148 17.3203C19.6146 17.6576 19.446 17.9219 19.209 18.1133C18.9811 18.3047 18.694 18.4004 18.3477 18.4004C17.9284 18.4004 17.6094 18.2773 17.3906 18.0312C17.1719 17.7852 17.0625 17.4661 17.0625 17.0742C17.0625 16.8099 17.0944 16.5273 17.1582 16.2266C17.222 15.9167 17.3268 15.6022 17.4727 15.2832C17.8555 14.4082 18.3978 13.6654 19.0996 13.0547C19.8014 12.444 20.6081 11.9792 21.5195 11.6602C22.431 11.3411 23.4017 11.1816 24.4316 11.1816C25.8171 11.1816 27.0749 11.4368 28.2051 11.9473C29.3444 12.4486 30.2467 13.1823 30.9121 14.1484C31.5866 15.1055 31.9238 16.2676 31.9238 17.6348C31.9238 18.9564 31.5775 20.1003 30.8848 21.0664C30.1921 22.0234 29.2578 22.8984 28.082 23.6914C27.3529 24.1927 26.7832 24.6348 26.373 25.0176C25.9629 25.4004 25.6712 25.8014 25.498 26.2207C25.3249 26.64 25.2337 27.1504 25.2246 27.752C25.2246 27.8249 25.2246 27.9023 25.2246 27.9844C25.2246 28.0573 25.2246 28.1348 25.2246 28.2168C25.2246 28.6543 25.1107 29.0189 24.8828 29.3105C24.6549 29.6022 24.304 29.748 23.8301 29.748ZM23.8301 37.2266C23.4746 37.2266 23.151 37.14 22.8594 36.9668C22.5677 36.7936 22.3307 36.5566 22.1484 36.2559C21.9753 35.9642 21.8887 35.6406 21.8887 35.2852C21.8887 34.9297 21.9753 34.6016 22.1484 34.3008C22.3307 34.0091 22.5677 33.7767 22.8594 33.6035C23.151 33.4303 23.4746 33.3438 23.8301 33.3438C24.1947 33.3438 24.5228 33.4303 24.8145 33.6035C25.1152 33.7767 25.3522 34.0091 25.5254 34.3008C25.6986 34.6016 25.7852 34.9297 25.7852 35.2852C25.7852 35.6406 25.6986 35.9642 25.5254 36.2559C25.3522 36.5566 25.1152 36.7936 24.8145 36.9668C24.5228 37.14 24.1947 37.2266 23.8301 37.2266Z" fill="#697989"/>
</svg>
