<svg width="60" height="60" viewBox="0 0 60 60" fill="none" xmlns="http://www.w3.org/2000/svg">
<path d="M21.182 41.661C19.7607 39.6747 19.7607 37.3802 19.7607 35.1028C22.6203 36.8151 25.4628 38.5275 26.9012 40.5309L27.4662 41.4898V37.5857C24.8977 36.0446 22.4662 34.4692 21.182 32.6713C19.7607 30.685 19.7607 28.3905 19.7607 26.1131C22.6203 27.8254 25.4628 29.5377 26.9012 31.5412L27.4662 32.5343V28.5959C24.8977 27.0549 22.4662 25.4795 21.182 23.6816C19.7607 21.6953 19.7607 19.4007 19.7607 17.1233C22.6203 18.8357 25.4628 20.548 26.9012 22.5514C27.0724 22.7912 27.2265 23.048 27.3635 23.322C27.0724 22.2603 26.884 21.2672 26.8669 20.2398C26.8498 17.6542 27.9799 15.0001 29.1101 12.3459C30.2916 14.8802 31.4731 17.4316 31.4902 20.0172C31.5073 21.0959 31.319 22.1918 31.0107 23.2706C31.1477 23.0309 31.2847 22.7912 31.4559 22.5514C32.8943 20.548 35.7368 18.8357 38.5964 17.1233C38.5964 19.4007 38.5964 21.6953 37.1751 23.6816C35.8909 25.4795 33.4594 27.0549 30.8909 28.5959V32.5343L31.4559 31.5412C32.8943 29.5377 35.7368 27.8254 38.5964 26.1131C38.5964 28.3905 38.5964 30.685 37.1751 32.6713C35.8909 34.4692 33.4594 36.0446 30.8909 37.5857V41.4898L31.4559 40.5309C32.8943 38.5275 35.7368 36.8151 38.5964 35.1028C38.5964 37.3802 38.5964 39.6747 37.1751 41.661C35.8909 43.459 33.4594 45.0343 30.8909 46.5754V49.6576H27.4662V46.5754C24.8977 45.0343 22.4662 43.459 21.182 41.661Z" fill="#D0D5DD"/>
<path fill-rule="evenodd" clip-rule="evenodd" d="M30 2.46575C14.7933 2.46575 2.46575 14.7933 2.46575 30C2.46575 45.2067 14.7933 57.5342 30 57.5342C45.2067 57.5342 57.5342 45.2067 57.5342 30C57.5342 14.7933 45.2067 2.46575 30 2.46575ZM0 30C0 13.4315 13.4315 0 30 0C46.5685 0 60 13.4315 60 30C60 46.5685 46.5685 60 30 60C13.4315 60 0 46.5685 0 30Z" fill="#D0D5DD"/>
<path fill-rule="evenodd" clip-rule="evenodd" d="M50.6492 9.35085C51.1307 9.83232 51.1307 10.6129 50.6492 11.0944L11.0944 50.6492C10.6129 51.1307 9.83232 51.1307 9.35085 50.6492C8.86938 50.1677 8.86938 49.3871 9.35085 48.9056L48.9056 9.35085C49.3871 8.86938 50.1677 8.86938 50.6492 9.35085Z" fill="#D0D5DD"/>
</svg>
