<svg width="60" height="60" viewBox="0 0 60 60" fill="none" xmlns="http://www.w3.org/2000/svg">
<path d="M38.8567 18.5005C39.4893 17.5459 40.1281 16.386 40.5065 15.2506L43.414 16.2189C42.8625 17.8707 41.9281 19.4704 41.0855 20.6717C42.72 22.5441 44.0773 25.0754 44.6747 27.7047C45.3916 30.8719 45.047 34.4466 42.3861 37.1097L39.137 40.3596L38.0248 39.2471C35.1174 41.8581 31.7518 43.7887 28.4292 44.5916C24.6485 45.5049 20.7729 44.9747 17.8991 42.1002C15.0253 39.2257 14.4953 35.3491 15.4083 31.5675C16.211 28.244 18.1411 24.8777 20.7514 21.9695L19.6393 20.8571L22.8884 17.6072C25.5339 14.961 29.1078 14.6193 32.2482 15.3088C34.6638 15.8594 36.9233 16.9507 38.8567 18.5005ZM36.9311 20.8831C35.3675 19.6322 33.5423 18.7497 31.591 18.3013C29.0695 17.7466 26.712 18.1159 25.056 19.7722L23.9714 20.8555L32.1884 29.0745H37.4198V34.3056L39.1355 36.0233L40.22 34.94C41.8928 33.2683 42.2589 30.9117 41.686 28.3819C41.2418 26.4191 40.2553 24.5099 39.0895 23.0589C38.7724 23.3868 38.44 23.7193 38.0892 24.0702L38.054 24.1054L35.8879 21.9388C36.2816 21.545 36.6232 21.2034 36.9311 20.8831ZM35.8542 37.0729L34.356 35.5743V32.1375H30.92L22.9221 24.1407C20.6396 26.7164 19.0373 29.5955 18.3878 32.2877C17.6463 35.3522 18.1534 38.0213 20.0652 39.9336C21.9769 41.8458 24.6455 42.3545 27.7092 41.6129C30.4007 40.9617 33.2791 39.3605 35.8542 37.0775" fill="#D0D5DD"/>
<path fill-rule="evenodd" clip-rule="evenodd" d="M30 2.46575C14.7933 2.46575 2.46575 14.7933 2.46575 30C2.46575 45.2067 14.7933 57.5342 30 57.5342C45.2067 57.5342 57.5342 45.2067 57.5342 30C57.5342 14.7933 45.2067 2.46575 30 2.46575ZM0 30C0 13.4315 13.4315 0 30 0C46.5685 0 60 13.4315 60 30C60 46.5685 46.5685 60 30 60C13.4315 60 0 46.5685 0 30Z" fill="#D0D5DD"/>
<path fill-rule="evenodd" clip-rule="evenodd" d="M50.6492 9.35085C51.1307 9.83232 51.1307 10.6129 50.6492 11.0944L11.0944 50.6492C10.6129 51.1307 9.83232 51.1307 9.35085 50.6492C8.86938 50.1677 8.86938 49.3871 9.35085 48.9056L48.9056 9.35085C49.3871 8.86938 50.1677 8.86938 50.6492 9.35085Z" fill="#D0D5DD"/>
</svg>
