<svg width="12" height="12" viewBox="0 0 12 12" fill="none" xmlns="http://www.w3.org/2000/svg">
<path fill-rule="evenodd" clip-rule="evenodd" d="M5.66262 6.80195L0.590618 2.77928C0.41836 2.64284 0.276915 2.4715 0.175571 2.27651C0.0742281 2.08152 0.0152796 1.8673 0.00259704 1.64792C-0.0100856 1.42853 0.0237846 1.20895 0.101983 1.00358C0.180182 0.798215 0.300941 0.611715 0.456328 0.456328C0.611715 0.300941 0.798215 0.180182 1.00358 0.101983C1.20895 0.0237846 1.42853 -0.0100856 1.64792 0.00259704C1.8673 0.0152796 2.08152 0.0742281 2.27651 0.175571C2.4715 0.276915 2.64284 0.41836 2.77928 0.590618L6.80195 5.66262C7.67328 5.28195 9.00195 5.23062 10.1213 6.34928C10.798 7.02662 11.2193 7.85462 11.3633 8.64262C11.5033 9.40928 11.396 10.26 10.828 10.828C10.2606 11.396 9.40928 11.5033 8.64328 11.3633C7.85528 11.2193 7.02662 10.798 6.34995 10.1206C5.22995 9.00128 5.28195 7.67328 5.66262 6.80195Z" fill="#98A2B3"/>
</svg>
