<svg width="60" height="60" viewBox="0 0 60 60" fill="none" xmlns="http://www.w3.org/2000/svg">
<path d="M32.6917 23.6249C32.6917 22.6333 32.975 21.9249 33.1167 21.4999H33.9667L35.2417 17.9583H36.375V15.8333H23.625V17.9583H24.7583L26.0333 21.4999H26.8833C27.1667 21.9249 27.3083 22.6333 27.3083 23.6249C27.3083 25.4666 21.5 32.4083 21.5 37.9333V40.7666C21.5 42.7499 25.325 44.0249 30 44.0249C34.675 44.0249 38.5 42.7499 38.5 40.7666V37.9333C38.5 32.4083 32.6917 25.4666 32.6917 23.6249ZM30 34.2499C29.2486 34.2499 28.5279 33.9514 27.9965 33.4201C27.4652 32.8887 27.1667 32.168 27.1667 31.4166C27.1667 30.6651 27.4652 29.9445 27.9965 29.4131C28.5279 28.8818 29.2486 28.5833 30 28.5833C30.7514 28.5833 31.4721 28.8818 32.0035 29.4131C32.5348 29.9445 32.8333 30.6651 32.8333 31.4166C32.8333 32.168 32.5348 32.8887 32.0035 33.4201C31.4721 33.9514 30.7514 34.2499 30 34.2499Z" fill="black"/>
<path fill-rule="evenodd" clip-rule="evenodd" d="M30 2.46575C14.7933 2.46575 2.46575 14.7933 2.46575 30C2.46575 45.2067 14.7933 57.5342 30 57.5342C45.2067 57.5342 57.5342 45.2067 57.5342 30C57.5342 14.7933 45.2067 2.46575 30 2.46575ZM0 30C0 13.4315 13.4315 0 30 0C46.5685 0 60 13.4315 60 30C60 46.5685 46.5685 60 30 60C13.4315 60 0 46.5685 0 30Z" fill="#101828"/>
<path fill-rule="evenodd" clip-rule="evenodd" d="M50.6492 9.35085C51.1307 9.83232 51.1307 10.6129 50.6492 11.0944L11.0944 50.6492C10.6129 51.1307 9.83232 51.1307 9.35085 50.6492C8.86938 50.1677 8.86938 49.3871 9.35085 48.9056L48.9056 9.35085C49.3871 8.86938 50.1677 8.86938 50.6492 9.35085Z" fill="#101828"/>
</svg>
