<svg width="32" height="32" viewBox="0 0 32 32" fill="none" xmlns="http://www.w3.org/2000/svg">
<path d="M16.0998 20.6333C15.4554 20.6555 14.8389 20.5502 14.2505 20.3173C13.6621 20.0844 13.1452 19.7453 12.6998 19.3C12.2545 18.8546 11.9154 18.3546 11.6825 17.8C11.4496 17.2453 11.3332 16.6564 11.3332 16.0333C11.3332 15.8111 11.3443 15.5946 11.3665 15.384C11.3887 15.1733 11.4332 14.9675 11.4998 14.7666C11.5887 14.5 11.5834 14.2333 11.4838 13.9666C11.3843 13.7 11.2118 13.5111 10.9665 13.4C10.6998 13.2888 10.439 13.2888 10.1838 13.4C9.92873 13.5111 9.75628 13.7 9.66651 13.9666C9.5554 14.3 9.47228 14.6333 9.41717 14.9666C9.36206 15.3 9.33406 15.6444 9.33317 16C9.33317 16.8888 9.50562 17.7391 9.85051 18.5506C10.1954 19.3622 10.6785 20.0786 11.2998 20.7C11.8998 21.3222 12.6056 21.8 13.4172 22.1333C14.2287 22.4666 15.0674 22.6444 15.9332 22.6666L15.3665 23.2333C15.1665 23.4333 15.0665 23.6666 15.0665 23.9333C15.0665 24.2 15.1665 24.4333 15.3665 24.6333C15.5665 24.8333 15.7998 24.9333 16.0665 24.9333C16.3332 24.9333 16.5665 24.8333 16.7665 24.6333L18.8998 22.5C19.1665 22.2333 19.2998 21.9222 19.2998 21.5666C19.2998 21.2111 19.1665 20.9 18.8998 20.6333L16.7665 18.5C16.5665 18.3 16.3332 18.2 16.0665 18.2C15.7998 18.2 15.5665 18.3 15.3665 18.5C15.1665 18.7 15.0665 18.9333 15.0665 19.2C15.0665 19.4666 15.1665 19.7 15.3665 19.9L16.0998 20.6333ZM15.8665 11.3333C16.5109 11.3333 17.1332 11.4502 17.7332 11.684C18.3332 11.9177 18.8554 12.2564 19.2998 12.7C19.7443 13.1435 20.0834 13.6435 20.3172 14.2C20.5509 14.7564 20.6674 15.3453 20.6665 15.9666C20.6665 16.1888 20.6554 16.4053 20.6332 16.616C20.611 16.8266 20.5665 17.0324 20.4998 17.2333C20.4109 17.5 20.4167 17.772 20.5172 18.0493C20.6176 18.3266 20.7896 18.5213 21.0332 18.6333C21.2998 18.7444 21.5612 18.7444 21.8172 18.6333C22.0732 18.5222 22.2452 18.3333 22.3332 18.0666C22.4443 17.7333 22.5278 17.3942 22.5838 17.0493C22.6398 16.7044 22.6674 16.3546 22.6665 16C22.6665 15.1111 22.5052 14.2613 22.1825 13.4506C21.8598 12.64 21.3767 11.912 20.7332 11.2666C20.111 10.6444 19.3945 10.1724 18.5838 9.85063C17.7732 9.52885 16.9341 9.36751 16.0665 9.36663L16.6665 8.76663C16.8443 8.56663 16.9332 8.33329 16.9332 8.06663C16.9332 7.79996 16.8332 7.56663 16.6332 7.36663C16.4332 7.16663 16.1998 7.06663 15.9332 7.06663C15.6665 7.06663 15.4332 7.16663 15.2332 7.36663L13.0998 9.49996C12.8332 9.76663 12.6998 10.0777 12.6998 10.4333C12.6998 10.7888 12.8332 11.1 13.0998 11.3666L15.2332 13.5C15.4332 13.7 15.6665 13.8 15.9332 13.8C16.1998 13.8 16.4332 13.7 16.6332 13.5C16.8332 13.3 16.9332 13.0666 16.9332 12.8C16.9332 12.5333 16.8332 12.3 16.6332 12.1L15.8665 11.3333ZM15.9998 29.3333C14.1554 29.3333 12.4221 28.9831 10.7998 28.2826C9.17762 27.5822 7.76651 26.6324 6.56651 25.4333C5.36651 24.2342 4.41673 22.8231 3.71717 21.2C3.01762 19.5768 2.66739 17.8435 2.66651 16C2.66562 14.1564 3.01584 12.4231 3.71717 10.8C4.41851 9.17685 5.36828 7.76574 6.56651 6.56663C7.76473 5.36751 9.17584 4.41774 10.7998 3.71729C12.4238 3.01685 14.1572 2.66663 15.9998 2.66663C17.8425 2.66663 19.5758 3.01685 21.1998 3.71729C22.8238 4.41774 24.235 5.36751 25.4332 6.56663C26.6314 7.76574 27.5816 9.17685 28.2838 10.8C28.9861 12.4231 29.3358 14.1564 29.3332 16C29.3305 17.8435 28.9803 19.5768 28.2825 21.2C27.5847 22.8231 26.635 24.2342 25.4332 25.4333C24.2314 26.6324 22.8203 27.5826 21.1998 28.284C19.5794 28.9853 17.8461 29.3351 15.9998 29.3333Z" fill="black"/>
</svg>
