<svg width="20" height="20" viewBox="0 0 20 20" fill="none" xmlns="http://www.w3.org/2000/svg">
<path d="M2.08764 0C0.354725 0.0168164 -1.17106 2.39613 1.27389 2.96092C5.53295 3.94529 8.85521 6.49236 11.4433 10.4709C11.7796 11.1394 12.0339 11.8039 11.9068 12.4724C11.7263 13.1246 11.6894 13.7849 11.7755 14.3551C11.9437 15.3804 12.4523 16.4961 13.3259 17.4476C14.1954 18.3992 15.2495 18.998 16.2544 19.2523C17.2593 19.5025 18.2642 19.4287 18.9369 18.8135C19.6136 18.1941 19.6997 17.2467 19.466 16.2828C19.2322 15.3189 18.6456 14.2812 17.7843 13.342C16.923 12.3986 15.9427 11.7219 15.0035 11.4019C14.6671 11.2871 14.3267 11.2133 14.0027 11.1969C13.4449 10.9713 13.0347 10.4955 12.6656 9.94588C10.3851 5.51209 6.99721 2.61393 3.0474 0.260449C2.73486 0.105 2.38541 0 2.08764 0ZM12.5548 12.94C13.5638 15.4748 15.5613 17.4846 17.7884 18.5797C17.4439 18.6412 17.0132 18.6248 16.5456 18.5099C15.6843 18.2926 14.7204 17.7594 13.9288 16.898C13.1372 16.0326 12.6697 14.9949 12.5261 14.1131C12.4851 13.7152 12.4728 13.2887 12.5548 12.94Z" fill="#CECECE"/>
</svg>
