<svg width="60" height="60" viewBox="0 0 60 60" fill="none" xmlns="http://www.w3.org/2000/svg">
<path d="M43.5452 30.7644C44.6156 29.6954 45.4321 28.3995 45.9341 26.9725C46.4361 25.5454 46.6109 24.0238 46.4456 22.5201C46.2802 21.0164 45.7789 19.5691 44.9788 18.2852C44.1786 17.0014 43.1001 15.9139 41.823 15.1031C38.5877 12.9623 34.2579 12.9462 30.9904 15.0548C28.1575 16.8736 26.5962 19.7065 26.3226 22.636C26.1134 24.7606 25.3086 26.7404 23.8277 28.2212L23.7795 28.2695C21.9123 30.1366 21.9123 32.9856 23.6668 34.724L25.2603 36.3175C26.1036 37.1602 27.247 37.6336 28.4392 37.6336C29.6314 37.6336 30.7749 37.1602 31.6182 36.3175C33.1795 34.7562 35.2397 33.9031 37.4771 33.6616C39.6822 33.4202 41.839 32.4544 43.5452 30.7644ZM21.1719 42.2408C21.6065 43.1421 21.4616 44.2366 20.7051 44.9771C20.3775 45.3096 19.9599 45.5394 19.5036 45.638C19.0473 45.7367 18.5721 45.7001 18.1363 45.5326C17.7005 45.3651 17.3231 45.0741 17.0503 44.6952C16.7775 44.3163 16.6213 43.8661 16.6007 43.3997C16.1343 43.3791 15.684 43.2228 15.3051 42.95C14.9262 42.6773 14.6352 42.2998 14.4677 41.864C14.3003 41.4283 14.2636 40.9531 14.3623 40.4967C14.461 40.0404 14.6907 39.6228 15.0233 39.2952C15.7637 38.5548 16.8743 38.3938 17.7596 38.8284L21.7514 34.9171C21.9767 35.2229 22.2343 35.5771 22.524 35.8668L24.1175 37.4603C24.4555 37.7822 24.7774 38.0558 25.1959 38.2973L21.1719 42.2408Z" fill="#101828"/>
<path fill-rule="evenodd" clip-rule="evenodd" d="M30 2.46575C14.7933 2.46575 2.46575 14.7933 2.46575 30C2.46575 45.2067 14.7933 57.5342 30 57.5342C45.2067 57.5342 57.5342 45.2067 57.5342 30C57.5342 14.7933 45.2067 2.46575 30 2.46575ZM0 30C0 13.4315 13.4315 0 30 0C46.5685 0 60 13.4315 60 30C60 46.5685 46.5685 60 30 60C13.4315 60 0 46.5685 0 30Z" fill="#101828"/>
<path fill-rule="evenodd" clip-rule="evenodd" d="M50.6492 9.35083C51.1306 9.8323 51.1306 10.6129 50.6492 11.0944L11.0944 50.6492C10.6129 51.1306 9.8323 51.1306 9.35083 50.6492C8.86936 50.1677 8.86936 49.3871 9.35083 48.9056L48.9056 9.35083C49.3871 8.86936 50.1677 8.86936 50.6492 9.35083Z" fill="#101828"/>
</svg>
