<svg width="50" height="50" viewBox="0 0 50 50" fill="none" xmlns="http://www.w3.org/2000/svg">
<rect x="0.5" y="0.5" width="49" height="49" rx="24.5" stroke="#F63D68"/>
<path d="M25.7348 38.0742C23.8116 38.0742 22.0069 37.7096 20.3207 36.9805C18.6345 36.2604 17.1534 35.2624 15.8773 33.9863C14.6013 32.7103 13.5987 31.2292 12.8695 29.543C12.1495 27.8568 11.7895 26.0521 11.7895 24.1289C11.7895 22.2057 12.1495 20.401 12.8695 18.7148C13.5987 17.0286 14.6013 15.5475 15.8773 14.2715C17.1534 12.9863 18.6345 11.9837 20.3207 11.2637C22.0069 10.5436 23.8116 10.1836 25.7348 10.1836C27.6579 10.1836 29.4626 10.5436 31.1488 11.2637C32.835 11.9837 34.3161 12.9863 35.5922 14.2715C36.8682 15.5475 37.8663 17.0286 38.5863 18.7148C39.3155 20.401 39.6801 22.2057 39.6801 24.1289C39.6801 26.0521 39.3155 27.8568 38.5863 29.543C37.8663 31.2292 36.8682 32.7103 35.5922 33.9863C34.3161 35.2624 32.835 36.2604 31.1488 36.9805C29.4626 37.7096 27.6579 38.0742 25.7348 38.0742ZM25.7348 35.75C27.3389 35.75 28.8428 35.4492 30.2465 34.8477C31.6501 34.2461 32.8852 33.4121 33.9516 32.3457C35.018 31.2793 35.852 30.0443 36.4535 28.6406C37.0551 27.237 37.3559 25.7331 37.3559 24.1289C37.3559 22.5247 37.0551 21.0208 36.4535 19.6172C35.852 18.2044 35.018 16.9694 33.9516 15.9121C32.8852 14.8457 31.6501 14.0117 30.2465 13.4102C28.8428 12.8086 27.3389 12.5078 25.7348 12.5078C24.1306 12.5078 22.6267 12.8086 21.223 13.4102C19.8194 14.0117 18.5844 14.8457 17.518 15.9121C16.4516 16.9694 15.6176 18.2044 15.016 19.6172C14.4145 21.0208 14.1137 22.5247 14.1137 24.1289C14.1137 25.7331 14.4145 27.237 15.016 28.6406C15.6176 30.0443 16.4516 31.2793 17.518 32.3457C18.5844 33.4121 19.8194 34.2461 21.223 34.8477C22.6267 35.4492 24.1306 35.75 25.7348 35.75ZM21.4828 29.8848C20.7445 29.8848 20.0655 29.7161 19.4457 29.3789C18.835 29.0326 18.4294 28.5404 18.2289 27.9023C18.156 27.6745 18.1195 27.4375 18.1195 27.1914C18.1195 26.918 18.2016 26.7083 18.3656 26.5625C18.5297 26.4076 18.7484 26.3301 19.0219 26.3301C19.4594 26.3301 19.7465 26.5534 19.8832 27C19.9652 27.3099 20.1293 27.6061 20.3754 27.8887C20.6215 28.1621 20.9906 28.2988 21.4828 28.2988C21.9932 28.2988 22.3715 28.1257 22.6176 27.7793C22.8728 27.4329 23.0004 27.0228 23.0004 26.5488C23.0004 25.9564 22.8454 25.5052 22.5355 25.1953C22.2257 24.8763 21.779 24.7168 21.1957 24.7168H20.8539C20.3526 24.7168 20.102 24.4798 20.102 24.0059C20.102 23.5137 20.3526 23.2676 20.8539 23.2676H21.182C21.6924 23.2676 22.0844 23.1081 22.3578 22.7891C22.6312 22.4609 22.768 22.0462 22.768 21.5449C22.768 21.0983 22.6586 20.7201 22.4398 20.4102C22.2211 20.1003 21.8839 19.9453 21.4281 19.9453C21.0453 19.9453 20.74 20.0638 20.5121 20.3008C20.2842 20.5378 20.1156 20.8568 20.0062 21.2578C19.9424 21.4948 19.8376 21.6634 19.6918 21.7637C19.5551 21.8639 19.3728 21.9141 19.1449 21.9141C18.8715 21.9141 18.6618 21.8366 18.516 21.6816C18.3702 21.5176 18.2973 21.3262 18.2973 21.1074C18.2973 20.9889 18.3064 20.8704 18.3246 20.752C18.3428 20.6243 18.3702 20.4967 18.4066 20.3691C18.598 19.7585 18.9717 19.2708 19.5277 18.9062C20.0928 18.5417 20.7263 18.3594 21.4281 18.3594C22.3214 18.3594 23.0779 18.6191 23.6977 19.1387C24.3174 19.6491 24.6273 20.3783 24.6273 21.3262C24.6273 21.9004 24.4724 22.4336 24.1625 22.9258C23.8617 23.418 23.4014 23.7461 22.7816 23.9102V23.9512C23.3559 24.015 23.8617 24.2611 24.2992 24.6895C24.7367 25.1178 24.9555 25.7559 24.9555 26.6035C24.9555 27.6335 24.6228 28.4401 23.9574 29.0234C23.2921 29.5977 22.4672 29.8848 21.4828 29.8848ZM29.932 29.9258C29.2484 29.9258 28.6788 29.7572 28.223 29.4199C27.7673 29.0736 27.4027 28.6178 27.1293 28.0527C26.865 27.4876 26.6736 26.8633 26.5551 26.1797C26.4457 25.487 26.391 24.7988 26.391 24.1152C26.391 23.4225 26.4457 22.7344 26.5551 22.0508C26.6736 21.3672 26.865 20.7428 27.1293 20.1777C27.4027 19.6126 27.7673 19.1615 28.223 18.8242C28.6788 18.4779 29.2484 18.3047 29.932 18.3047C30.6065 18.3047 31.1716 18.4779 31.6273 18.8242C32.0831 19.1615 32.4431 19.6126 32.7074 20.1777C32.9809 20.7428 33.1723 21.3672 33.2816 22.0508C33.4001 22.7344 33.4594 23.4225 33.4594 24.1152C33.4594 24.7988 33.4001 25.487 33.2816 26.1797C33.1723 26.8633 32.9809 27.4876 32.7074 28.0527C32.4431 28.6178 32.0831 29.0736 31.6273 29.4199C31.1716 29.7572 30.6065 29.9258 29.932 29.9258ZM29.932 28.2988C30.2055 28.2988 30.4379 28.194 30.6293 27.9844C30.8298 27.7747 30.9893 27.4785 31.1078 27.0957C31.2354 26.7129 31.3266 26.2708 31.3812 25.7695C31.4359 25.2591 31.4633 24.7077 31.4633 24.1152C31.4633 23.5228 31.4359 22.9714 31.3812 22.4609C31.3266 21.9505 31.2354 21.5085 31.1078 21.1348C30.9893 20.752 30.8298 20.4557 30.6293 20.2461C30.4379 20.0273 30.2055 19.918 29.932 19.918C29.6495 19.918 29.4079 20.0273 29.2074 20.2461C29.016 20.4557 28.8565 20.752 28.7289 21.1348C28.6104 21.5085 28.5238 21.9505 28.4691 22.4609C28.4145 22.9714 28.3871 23.5228 28.3871 24.1152C28.3871 24.7077 28.4145 25.2591 28.4691 25.7695C28.5238 26.2708 28.6104 26.7129 28.7289 27.0957C28.8565 27.4785 29.016 27.7747 29.2074 27.9844C29.4079 28.194 29.6495 28.2988 29.932 28.2988Z" fill="#697989"/>
</svg>
