<svg width="91" height="80" viewBox="0 0 91 80" fill="none" xmlns="http://www.w3.org/2000/svg">
<path d="M35.7052 10.1112C42.4192 1.10864 52.5139 -1.52024 61.8001 1.00935C71.8239 3.73753 80.6373 12.3476 83.5641 24.3383C83.7154 24.953 83.8462 25.5677 83.9565 26.1823C79.7315 24.6769 75.136 24.5609 70.8405 25.8514C64.7553 21.3501 57.2185 20.5936 50.5186 23.0617C42.1261 26.1587 35.5728 34.0122 34.055 43.8942C32.1164 56.5469 39.8234 67.9135 50.7219 77.5779L52.5565 79.1666C51.0766 79.2706 49.573 79.039 48.1356 78.7316C47.397 78.5727 46.6624 78.3962 45.9323 78.2021L43.3932 77.4928C20.8208 71.1429 5.7094 61.2089 1.37363 46.3623C-2.08741 34.5134 1.24125 22.6504 8.56051 15.2744C15.3408 8.44209 25.3929 5.67136 35.7052 10.1112ZM43.4027 45.3268C45.4263 32.1257 60.6937 25.6197 68.5331 36.9485C68.6082 37.0537 68.7218 37.1252 68.8493 37.1473C68.9767 37.1694 69.1077 37.1405 69.214 37.0667C80.4529 29.1044 92.5713 40.4379 89.9566 53.535C88.4436 61.1317 81.3986 67.4359 68.8215 72.4478L66.7647 73.2516L65.5212 73.7623C64.4479 74.1831 63.3132 74.5188 62.2871 74.3391C61.2658 74.1594 60.3155 73.4502 59.4502 72.6937L57.9845 71.3698C47.0465 61.9575 42.1859 53.2765 43.4027 45.3268Z" fill="#F63D68"/>
</svg>
