<svg width="15" height="16" viewBox="0 0 15 16" fill="none" xmlns="http://www.w3.org/2000/svg">
<path d="M3.96094 8.40234H7.01953C7.13672 8.40234 7.23438 8.36328 7.3125 8.28516C7.39062 8.20703 7.42969 8.10938 7.42969 7.99219V4.04297C7.42969 3.92969 7.39062 3.83398 7.3125 3.75586C7.23438 3.67773 7.13672 3.63867 7.01953 3.63867C6.90625 3.63867 6.81055 3.67773 6.73242 3.75586C6.6543 3.83398 6.61523 3.92969 6.61523 4.04297V7.58789H3.96094C3.84375 7.58789 3.74609 7.62695 3.66797 7.70508C3.58984 7.7832 3.55078 7.87891 3.55078 7.99219C3.55078 8.10938 3.58984 8.20703 3.66797 8.28516C3.74609 8.36328 3.84375 8.40234 3.96094 8.40234ZM7.02539 13.7461C6.20117 13.7461 5.42773 13.5898 4.70508 13.2773C3.98242 12.9688 3.34766 12.541 2.80078 11.9941C2.25391 11.4434 1.82422 10.8086 1.51172 10.0898C1.20312 9.36719 1.04883 8.59375 1.04883 7.76953C1.04883 6.94531 1.20312 6.17188 1.51172 5.44922C1.82422 4.72656 2.25391 4.0918 2.80078 3.54492C3.34766 2.99805 3.98242 2.57031 4.70508 2.26172C5.42773 1.94922 6.20117 1.79297 7.02539 1.79297C7.84961 1.79297 8.62305 1.94922 9.3457 2.26172C10.0684 2.57031 10.7031 2.99805 11.25 3.54492C11.7969 4.0918 12.2246 4.72656 12.5332 5.44922C12.8457 6.17188 13.002 6.94531 13.002 7.76953C13.002 8.59375 12.8457 9.36719 12.5332 10.0898C12.2246 10.8086 11.7969 11.4434 11.25 11.9941C10.7031 12.541 10.0684 12.9688 9.3457 13.2773C8.62305 13.5898 7.84961 13.7461 7.02539 13.7461Z" fill="#98A2B3"/>
</svg>
