<svg width="21" height="21" viewBox="0 0 21 21" fill="none" xmlns="http://www.w3.org/2000/svg">
<g clip-path="url(#clip0_1937_16267)">
<path d="M2.74828 0.833008C1.01537 0.849824 -0.510411 3.22914 1.93453 3.79393C6.19359 4.7783 9.51586 7.32537 12.1039 11.3039C12.4403 11.9724 12.6946 12.6369 12.5674 13.3054C12.387 13.9576 12.35 14.6179 12.4362 15.1881C12.6043 16.2135 13.1129 17.3291 13.9866 18.2806C14.8561 19.2322 15.9102 19.831 16.9151 20.0853C17.92 20.3355 18.9248 20.2617 19.5975 19.6465C20.2743 19.0271 20.3604 18.0797 20.1266 17.1158C19.8928 16.1519 19.3063 15.1142 18.445 14.175C17.5836 13.2316 16.6034 12.5549 15.6641 12.2349C15.3278 12.1201 14.9873 12.0463 14.6633 12.0299C14.1055 11.8043 13.6953 11.3285 13.3262 10.7789C11.0457 6.3451 7.65785 3.44693 3.70805 1.09346C3.39551 0.938008 3.04605 0.833008 2.74828 0.833008ZM13.2155 13.773C14.2245 16.3078 16.2219 18.3176 18.4491 19.4127C18.1045 19.4742 17.6739 19.4578 17.2063 19.3429C16.345 19.1256 15.3811 18.5924 14.5895 17.731C13.7979 16.8656 13.3303 15.8279 13.1868 14.9461C13.1457 14.5482 13.1334 14.1217 13.2155 13.773Z" fill="black"/>
</g>
<defs>
<clipPath id="clip0_1937_16267">
<rect width="21" height="21" fill="white"/>
</clipPath>
</defs>
</svg>
