<svg width="60" height="60" viewBox="0 0 60 60" fill="none" xmlns="http://www.w3.org/2000/svg">
<path d="M39.8378 14.0001C39.5448 13.9987 39.2464 14.0085 38.9438 14.0291C38.4109 14.0652 37.8684 14.1366 37.3261 14.2344C38.1377 14.6414 38.8871 15.094 39.5775 15.5888C40.3179 15.1117 41.07 14.6533 41.8332 14.2141C41.2102 14.0718 40.5395 14.0036 39.8378 14.0001ZM35.3189 14.7186C34.1094 15.0837 32.9632 15.5596 31.9965 16.0799C31.5185 16.3372 31.1053 16.6745 30.7374 17.0745C31.1531 18.5982 31.6404 20.0625 32.2403 21.4442C34.1251 19.5668 36.2074 17.8676 38.463 16.3273C37.5335 15.7153 36.4888 15.1778 35.3189 14.7186ZM43.3882 14.7856C42.4517 15.2997 41.531 15.8421 40.6271 16.4121C41.8362 17.4497 42.8306 18.6386 43.6301 19.9568C44.2947 19.1485 44.9537 18.3277 45.6171 17.4979C45.4189 16.9042 45.1411 16.3701 44.7762 15.9221C44.3922 15.4504 43.9233 15.0751 43.3882 14.7856ZM39.5454 17.1147C37.0736 18.7676 34.8196 20.6062 32.8083 22.6556C33.7139 24.455 34.8438 26.094 36.2954 27.5182C38.7314 25.5465 40.8082 23.3186 42.7963 20.9592C41.9765 19.4952 40.9075 18.2085 39.5454 17.1147ZM29.7996 18.3622C29.433 18.9769 29.1063 19.6595 28.7847 20.38C28.2979 21.4705 27.8294 22.633 27.2131 23.7087L27.236 23.7136C26.9672 24.991 27.2219 25.9497 27.6965 26.8791C28.7904 25.2906 29.9962 23.8019 31.3056 22.4065C30.7108 21.1129 30.2183 19.7574 29.7996 18.3622ZM45.9502 19.0935C45.3974 19.782 44.8426 20.4662 44.2807 21.1436C44.719 22.0314 45.0801 22.9692 45.3692 23.9515C45.4758 23.619 45.5697 23.2825 45.6508 22.9428C45.9624 21.6337 46.0747 20.3019 45.9502 19.0935ZM43.4066 22.1839C41.5319 24.3805 39.5443 26.4818 37.2347 28.3716C38.0426 29.05 38.9398 29.6695 39.9367 30.2244C40.6917 29.9437 41.4138 29.606 42.0759 29.1418C42.9777 28.5094 43.8657 27.3431 44.5665 25.9332C44.2984 24.5926 43.9177 23.3408 43.4066 22.1839ZM31.9003 23.6137C30.5361 25.1035 29.2932 26.6987 28.182 28.4097L28.0712 28.5802L27.8824 28.6535C26.3561 29.2459 24.9906 29.9967 23.7422 30.8663C24.628 31.6495 25.5578 32.5364 26.4563 33.4442C27.1244 34.1186 27.7771 34.8081 28.414 35.5122C29.3565 33.9236 30.0606 32.5011 30.3609 31.5541L30.4405 31.3028L30.6746 31.1832C32.3686 30.3175 33.8947 29.3469 35.3002 28.2934C33.9118 26.8984 32.8025 25.3199 31.9003 23.6137ZM25.9405 25.48C25.8343 25.595 25.7245 25.7066 25.6113 25.8146C24.2857 27.0761 22.6267 27.9617 21.0433 28.7479C21.4006 28.9766 21.7835 29.2537 22.191 29.5707C22.3814 29.7193 22.5697 29.8705 22.756 30.0242C23.9651 29.1564 25.2846 28.3903 26.7487 27.7612C26.3788 27.0783 26.0674 26.3273 25.9405 25.48ZM36.2304 29.1635C34.9314 30.1505 33.53 31.0713 31.993 31.9074C32.4888 32.1896 33.1212 32.3671 33.8138 32.6337C34.9687 31.7774 36.3082 31.3498 37.6208 30.9592C37.8642 30.8868 38.1064 30.8151 38.3478 30.743C37.5843 30.2551 36.8795 29.7278 36.2304 29.1635ZM19.6688 29.4275C18.9114 29.8061 18.2023 30.1803 17.5973 30.5849C16.4305 31.3653 15.5437 32.5148 14.9419 33.8462C15.1025 34.2692 15.5269 35.1296 16.1393 36.0725C16.2072 36.1769 16.2796 36.2849 16.3515 36.3926C17.9585 34.3799 19.6843 32.451 21.725 30.8088C21.625 30.7281 21.5243 30.6483 21.423 30.5693C20.8116 30.0937 20.2663 29.7258 19.8685 29.5209C19.8031 29.4873 19.7365 29.4561 19.6688 29.4275ZM22.7062 31.6348C20.5836 33.308 18.7985 35.3285 17.1035 37.473C17.6854 38.277 18.344 39.1236 19.035 39.9465C20.1449 41.2681 21.3413 42.53 22.4255 43.4561C22.4332 43.4627 22.4409 43.4688 22.4486 43.4754C23.5763 42.3029 24.7416 40.8972 25.809 39.4433C26.4801 38.5285 27.1199 37.5909 27.7272 36.6322C27.0665 35.8902 26.3297 35.1053 25.5668 34.3348C24.6144 33.3726 23.6249 32.4363 22.7062 31.6348ZM31.1873 32.9084C30.7491 33.954 30.0923 35.1931 29.2916 36.5105C29.6253 36.9011 29.936 37.2775 30.2094 37.6278C30.4164 37.893 30.6023 38.1423 30.7677 38.3776C31.1886 36.7193 31.6269 34.9568 32.7672 33.6076C32.2548 33.4384 31.6978 33.2466 31.1873 32.9084ZM14.3457 35.5659C14.1919 36.1773 14.0889 36.8006 14.038 37.4292C13.9848 38.0834 13.9875 38.7409 14.0458 39.3946C14.5386 38.7391 15.033 38.0837 15.5368 37.4316C15.3846 37.2105 15.2351 36.9876 15.0885 36.7628C14.8067 36.3289 14.5576 35.9337 14.3457 35.5659ZM28.5893 37.6287C28.0242 38.5007 27.4338 39.3558 26.8189 40.1931C25.754 41.6435 24.6172 43.0496 23.4758 44.254C24.1299 44.6898 24.6836 44.9393 24.9949 44.9613L24.9884 45.0553C26.2271 44.5777 27.388 43.9651 28.3286 43.3095C29.3354 42.6081 29.8809 41.4463 30.3055 40.071C30.273 39.9822 30.2343 39.8957 30.1894 39.8125C30.0139 39.4833 29.6721 38.984 29.222 38.4072C29.0309 38.1624 28.8164 37.9 28.5893 37.6287ZM16.3004 38.5045C15.6427 39.3611 14.9915 40.2318 14.3345 41.1023C14.6851 42.4816 15.304 43.7065 16.1611 44.5784C17.0048 45.4369 18.166 45.881 19.4893 46C20.1164 45.6204 20.8174 45.0572 21.5521 44.3656C20.4054 43.3774 19.1984 42.0974 18.076 40.7609C17.4607 40.0278 16.8685 39.2753 16.3004 38.5045ZM22.5589 45.1752C22.2802 45.4406 22.0024 45.6919 21.7263 45.9256C21.7877 45.917 21.8491 45.9083 21.9106 45.8986C22.3473 45.8307 22.7882 45.7378 23.2276 45.624C23.0071 45.492 22.7844 45.3407 22.5589 45.1752Z" fill="#E31B54"/>
<path fill-rule="evenodd" clip-rule="evenodd" d="M30 2.46575C14.7933 2.46575 2.46575 14.7933 2.46575 30C2.46575 45.2067 14.7933 57.5342 30 57.5342C45.2067 57.5342 57.5342 45.2067 57.5342 30C57.5342 14.7933 45.2067 2.46575 30 2.46575ZM0 30C0 13.4315 13.4315 0 30 0C46.5685 0 60 13.4315 60 30C60 46.5685 46.5685 60 30 60C13.4315 60 0 46.5685 0 30Z" fill="#E31B54"/>
<path fill-rule="evenodd" clip-rule="evenodd" d="M50.6492 9.35085C51.1307 9.83232 51.1307 10.6129 50.6492 11.0944L11.0944 50.6492C10.6129 51.1307 9.83232 51.1307 9.35085 50.6492C8.86938 50.1677 8.86938 49.3871 9.35085 48.9056L48.9056 9.35085C49.3871 8.86938 50.1677 8.86938 50.6492 9.35085Z" fill="#E31B54"/>
</svg>
