<svg width="272" height="116" viewBox="0 0 272 116" fill="none" xmlns="http://www.w3.org/2000/svg">
<path d="M237.685 8.37464C215.581 0.147685 194.637 18.7203 187.89 34.082C177.931 33.2982 180.192 31.5261 180.985 30.1632C202.507 -6.83036 231.584 -0.390669 239.935 1.94789C258.406 7.12028 298.837 38.4209 244.11 114.182C241.426 117.899 233.08 115.791 238.971 109.01C250.598 95.6254 288.592 27.3215 237.685 8.37464Z" fill="white"/>
<path d="M183.554 26.7159L180.823 32.8293C182.429 33.613 187.516 42.5479 189.658 47.2505C191.692 47.4072 195.605 47.1507 195.44 44.8992C195.28 42.7046 188.694 30.7915 183.554 26.7159Z" fill="white"/>
<path d="M186.445 39.8195L181.048 32.8271C180.787 32.8271 177.777 44.4811 177.45 50.075C177.777 51.6288 184.319 54.2046 184.319 52.095C184.319 49.6088 185.137 42.9272 186.445 39.8195Z" fill="white"/>
<path d="M196.726 61.5945C194.08 70.2291 177.45 71.5464 177.45 50.2281H183.452C183.952 50.2281 184.356 50.6319 184.344 51.1319C184.259 54.6813 183.938 60.417 188.534 60.417C192.71 60.417 190.943 50.228 189.015 45.9959C188.128 44.0478 193.031 42.9136 195.119 43.8018C196.083 46.1531 199.296 53.2069 196.726 61.5945Z" fill="white"/>
<path d="M181.306 33.4563C156.798 12.8769 138.716 35.6321 140.047 56.5152C140.277 60.117 139.902 66.0281 136.737 64.2941C135.709 63.7306 134.892 62.6657 134.723 61.9852C127.824 34.0809 154.641 3.67286 183.554 26.7149C187.891 31.1028 182.591 34.5354 181.306 33.4563Z" fill="white"/>
<path fill-rule="evenodd" clip-rule="evenodd" d="M20.9136 32.0615C13.5381 32.0615 7.55906 38.0432 7.55906 45.4221V67.9771C7.55906 70.0654 5.8669 71.7583 3.77953 71.7583C1.69215 71.7583 0 70.0654 0 67.9771V45.4221C0 33.8666 9.36333 24.499 20.9136 24.499C32.4639 24.499 41.8272 33.8666 41.8272 45.4221V67.9771C41.8272 70.0654 40.135 71.7583 38.0477 71.7583C35.9603 71.7583 34.2681 70.0654 34.2681 67.9771V45.4221C34.2681 38.0432 28.2891 32.0615 20.9136 32.0615Z" fill="#FFF5F6"/>
<path fill-rule="evenodd" clip-rule="evenodd" d="M55.4074 32.0615C47.9361 32.0615 41.8794 38.0432 41.8794 45.4221V67.9771C41.8794 70.0654 40.1653 71.7583 38.0508 71.7583C35.9363 71.7583 34.2222 70.0654 34.2222 67.9771V45.4221C34.2222 33.8666 43.7071 24.499 55.4074 24.499C67.1076 24.499 76.5926 33.8666 76.5926 45.4221V67.9771C76.5926 70.0654 74.8785 71.7583 72.764 71.7583C70.6495 71.7583 68.9354 70.0654 68.9354 67.9771V45.4221C68.9354 38.0432 62.8787 32.0615 55.4074 32.0615Z" fill="#FFF5F6"/>
<path fill-rule="evenodd" clip-rule="evenodd" d="M20.9136 32.0615C13.5381 32.0615 7.55906 38.0432 7.55906 45.4221V67.9771C7.55906 70.0654 5.8669 71.7583 3.77953 71.7583C1.69215 71.7583 0 70.0654 0 67.9771V45.4221C0 33.8666 9.36333 24.499 20.9136 24.499C32.4639 24.499 41.8272 33.8666 41.8272 45.4221V67.9771C41.8272 70.0654 40.135 71.7583 38.0477 71.7583C35.9603 71.7583 34.2681 70.0654 34.2681 67.9771V45.4221C34.2681 38.0432 28.2891 32.0615 20.9136 32.0615Z" fill="#FFF5F6"/>
<path fill-rule="evenodd" clip-rule="evenodd" d="M55.4074 32.0615C47.9361 32.0615 41.8794 38.0432 41.8794 45.4221V67.9771C41.8794 70.0654 40.1653 71.7583 38.0508 71.7583C35.9363 71.7583 34.2222 70.0654 34.2222 67.9771V45.4221C34.2222 33.8666 43.7071 24.499 55.4074 24.499C67.1076 24.499 76.5926 33.8666 76.5926 45.4221V67.9771C76.5926 70.0654 74.8785 71.7583 72.764 71.7583C70.6495 71.7583 68.9354 70.0654 68.9354 67.9771V45.4221C68.9354 38.0432 62.8787 32.0615 55.4074 32.0615Z" fill="#FFF5F6"/>
<path fill-rule="evenodd" clip-rule="evenodd" d="M104.025 32.0615C95.1511 32.0615 87.9576 39.255 87.9576 48.1287C87.9576 57.0023 95.1511 64.1959 104.025 64.1959C112.898 64.1959 120.092 57.0023 120.092 48.1287C120.092 39.255 112.898 32.0615 104.025 32.0615ZM80.3951 48.1287C80.3951 35.0784 90.9745 24.499 104.025 24.499C117.075 24.499 127.654 35.0784 127.654 48.1287C127.654 61.179 117.075 71.7583 104.025 71.7583C90.9745 71.7583 80.3951 61.179 80.3951 48.1287Z" fill="#FFF5F6"/>
<path fill-rule="evenodd" clip-rule="evenodd" d="M123.852 44.598C125.952 44.598 127.654 46.2755 127.654 48.3447V68.0118C127.654 70.0811 125.952 71.7585 123.852 71.7585C121.752 71.7585 120.049 70.0811 120.049 68.0118V48.3447C120.049 46.2755 121.752 44.598 123.852 44.598Z" fill="#FFF5F6"/>
<path fill-rule="evenodd" clip-rule="evenodd" d="M183.902 83.0951C177.772 83.0951 172.802 88.0456 172.802 94.1522V112.818C172.802 114.547 171.396 115.948 169.661 115.948C167.926 115.948 166.52 114.547 166.52 112.818V94.1522C166.52 84.589 174.302 76.8365 183.902 76.8365C193.502 76.8365 201.285 84.589 201.285 94.1522V112.818C201.285 114.547 199.879 115.948 198.144 115.948C196.409 115.948 195.002 114.547 195.002 112.818V94.1522C195.002 88.0455 190.033 83.0951 183.902 83.0951Z" fill="#FFF5F6"/>
<path fill-rule="evenodd" clip-rule="evenodd" d="M212.149 83.0951C206.019 83.0951 201.05 88.0456 201.05 94.1522V112.818C201.05 114.547 199.643 115.948 197.908 115.948C196.173 115.948 194.767 114.547 194.767 112.818V94.1522C194.767 84.589 202.549 76.8365 212.149 76.8365C221.75 76.8365 229.532 84.589 229.532 94.1522V112.818C229.532 114.547 228.126 115.948 226.391 115.948C224.656 115.948 223.249 114.547 223.249 112.818V94.1522C223.249 88.0455 218.28 83.0951 212.149 83.0951Z" fill="#FFF5F6"/>
<path fill-rule="evenodd" clip-rule="evenodd" d="M73.061 83.0951C66.9307 83.0951 61.9611 88.0456 61.9611 94.1522V112.818C61.9611 114.547 60.5546 115.948 58.8196 115.948C57.0847 115.948 55.6782 114.547 55.6782 112.818V94.1522C55.6782 84.589 63.4607 76.8365 73.061 76.8365C82.6612 76.8365 90.4437 84.589 90.4437 94.1522V112.818C90.4437 114.547 89.0372 115.948 87.3023 115.948C85.5673 115.948 84.1608 114.547 84.1608 112.818V94.1522C84.1608 88.0455 79.1913 83.0951 73.061 83.0951Z" fill="#FFF5F6"/>
<path fill-rule="evenodd" clip-rule="evenodd" d="M101.308 83.0951C95.1781 83.0951 90.2085 88.0456 90.2085 94.1522V112.818C90.2085 114.547 88.802 115.948 87.0671 115.948C85.3321 115.948 83.9257 114.547 83.9257 112.818V94.1522C83.9257 84.589 91.7082 76.8365 101.308 76.8365C110.909 76.8365 118.691 84.589 118.691 94.1522V112.818C118.691 114.547 117.285 115.948 115.55 115.948C113.815 115.948 112.408 114.547 112.408 112.818V94.1522C112.408 88.0455 107.439 83.0951 101.308 83.0951Z" fill="#FFF5F6"/>
<path fill-rule="evenodd" clip-rule="evenodd" d="M143.161 83.0951C135.818 83.0951 129.864 89.0484 129.864 96.3921C129.864 103.736 135.818 109.689 143.161 109.689C150.505 109.689 156.458 103.736 156.458 96.3921C156.458 89.0484 150.505 83.0951 143.161 83.0951ZM123.606 96.3921C123.606 85.5919 132.361 76.8365 143.161 76.8365C153.962 76.8365 162.717 85.5919 162.717 96.3921C162.717 107.192 153.962 115.948 143.161 115.948C132.361 115.948 123.606 107.192 123.606 96.3921Z" fill="#FFF5F6"/>
<path fill-rule="evenodd" clip-rule="evenodd" d="M159.729 93.1326C161.38 93.1326 162.717 94.5416 162.717 96.2798V112.8C162.717 114.538 161.38 115.947 159.729 115.947C158.079 115.947 156.742 114.538 156.742 112.8V96.2798C156.742 94.5416 158.079 93.1326 159.729 93.1326Z" fill="#FFF5F6"/>
</svg>
